<svg width="160" height="123" viewBox="0 0 160 123" fill="none" xmlns="http://www.w3.org/2000/svg">
<path d="M80.0003 83.3388C63.1723 83.3388 49.5496 69.7161 49.5496 52.888C49.5496 36.06 63.1723 22.4373 80.0003 22.4373C96.8284 22.4373 110.451 36.06 110.451 52.888C110.451 69.7161 96.8284 83.3388 80.0003 83.3388ZM80.0003 23.6393C63.9736 23.6393 50.8852 36.7278 50.8852 52.7545C50.8852 68.7812 63.9736 81.8697 80.0003 81.8697C96.027 81.8697 109.116 68.7812 109.116 52.7545C109.116 36.7278 96.027 23.6393 80.0003 23.6393Z" fill="white"/>
<path d="M70.3214 24.5715L69.1304 25.1757L79.3415 45.3045L80.5325 44.7002L70.3214 24.5715Z" fill="white"/>
<path d="M52.2513 42.0597L51.6471 43.2507L71.7759 53.4619L72.3801 52.2708L52.2513 42.0597Z" fill="white"/>
<path d="M71.8252 52.2548L51.6941 62.4637L52.2982 63.6549L72.4292 53.446L71.8252 52.2548Z" fill="white"/>
<path d="M79.3774 60.4021L69.1527 80.5241L70.3434 81.1291L80.568 61.0071L79.3774 60.4021Z" fill="white"/>
<path d="M80.5992 60.4491L79.4081 61.0533L89.6192 81.182L90.8103 80.5778L80.5992 60.4491Z" fill="white"/>
<path d="M88.1348 52.23L87.5306 53.421L107.659 63.6321L108.264 62.4411L88.1348 52.23Z" fill="white"/>
<path d="M107.683 41.95L87.5634 52.1769L88.1685 53.3674L108.288 43.1405L107.683 41.95Z" fill="white"/>
<path d="M89.541 24.5137L79.3345 44.6447L80.5256 45.2487L90.7322 25.1176L89.541 24.5137Z" fill="white"/>
<path d="M57.5107 33.1577L56.7813 34.2765L75.6889 46.6047L76.4184 45.4859L57.5107 33.1577Z" fill="white"/>
<path d="M73.1493 56.1631L50.61 57.3751L50.6817 58.7088L73.221 57.4968L73.1493 56.1631Z" fill="white"/>
<path d="M72.6123 56.3721L60.2773 75.2752L61.3958 76.0051L73.7309 57.1019L72.6123 56.3721Z" fill="white"/>
<path d="M84.5922 59.6718L83.2587 59.7441L84.4812 82.2812L85.8147 82.2089L84.5922 59.6718Z" fill="white"/>
<path d="M84.2204 59.0576L83.4911 60.1764L102.399 72.5024L103.128 71.3836L84.2204 59.0576Z" fill="white"/>
<path d="M109.327 46.9272L86.7896 48.1617L86.8627 49.4953L109.4 48.2608L109.327 46.9272Z" fill="white"/>
<path d="M98.5971 29.5319L86.2756 48.4441L87.3946 49.1732L99.7161 30.261L98.5971 29.5319Z" fill="white"/>
<path d="M75.3712 23.3503L74.0377 23.4227L75.2602 45.9598L76.5938 45.8874L75.3712 23.3503Z" fill="white"/>
<path d="M50.6467 46.9872L50.5744 48.3208L73.1115 49.544L73.1838 48.2104L50.6467 46.9872Z" fill="white"/>
<path d="M75.6935 59.1109L56.7813 71.4324L57.5103 72.5515L76.4225 60.23L75.6935 59.1109Z" fill="white"/>
<path d="M75.3403 59.6093L74.1063 82.1464L75.4398 82.2194L76.6738 59.6824L75.3403 59.6093Z" fill="white"/>
<path d="M87.3493 56.3652L86.2305 57.0947L98.5588 76.0024L99.6776 75.2729L87.3493 56.3652Z" fill="white"/>
<path d="M86.806 56.1366L86.7336 57.4701L109.271 58.6933L109.343 57.3598L86.806 56.1366Z" fill="white"/>
<path d="M102.498 33.0271L83.5969 45.3644L84.3269 46.4828L103.228 34.1455L102.498 33.0271Z" fill="white"/>
<path d="M84.4879 23.4367L83.2752 45.976L84.6089 46.0478L85.8216 23.5085L84.4879 23.4367Z" fill="white"/>
<path d="M61.3541 29.6535L60.2353 30.3829L72.5636 49.2906L73.6824 48.5612L61.3541 29.6535Z" fill="white"/>
<path d="M80.1338 62.7714C80.1338 62.6379 80.0002 62.6379 80.0002 62.6379L79.8667 62.7714L79.7331 64.107L78.3975 63.9734C77.9969 63.9734 77.7298 63.8399 77.3291 63.7063L75.9935 63.4392L76.3942 62.1037C76.3942 61.9701 76.3942 61.9701 76.2607 61.8365C76.1271 61.8365 76.1271 61.8365 76.1271 61.9701L75.4593 63.1721L74.2573 62.5043C73.9902 62.3708 73.5895 62.1036 73.3224 61.8365L72.254 61.0352L73.1889 59.9668C73.1889 59.8332 73.3224 59.8332 73.1889 59.6996H72.9218L71.8533 60.6345L71.052 59.5661C70.7848 59.299 70.6513 58.8983 70.3842 58.6312L69.7164 57.4292L70.9184 56.7614C71.052 56.7614 71.052 56.6278 71.052 56.4943C71.052 56.3607 70.9184 56.3607 70.9184 56.3607L69.5829 56.7614L69.1822 55.4259C69.0486 55.0252 69.0486 54.7581 68.9151 54.3574L68.7815 53.0219L70.1171 52.8883C70.2506 52.8883 70.2506 52.7547 70.2506 52.7547C70.2506 52.6212 70.1171 52.6212 70.1171 52.6212L68.7815 52.4876L68.9151 51.1521C68.9151 50.7514 69.0486 50.4843 69.1822 50.0836L69.4493 48.7481L70.7849 49.1487C70.9184 49.1487 70.9184 49.1487 70.9184 49.0152C70.9184 48.8816 70.9184 48.7481 70.7849 48.7481L69.5829 48.0803L70.2506 46.8783C70.3842 46.6112 70.6513 46.2105 70.9184 45.9434L71.7197 44.8749L72.7882 45.8098H73.0553C73.1889 45.6763 73.0553 45.6763 73.0553 45.5427L72.1204 44.4743L73.1889 43.6729C73.456 43.4058 73.8566 43.2723 74.1237 43.0052L75.3257 42.3374L75.9935 43.5394C75.9935 43.6729 76.1271 43.6729 76.1271 43.6729C76.2606 43.6729 76.3942 43.5394 76.2607 43.4058L75.86 42.0703L77.1955 41.8031C77.5962 41.6696 77.8633 41.6696 78.264 41.536L79.5995 41.4025L79.7331 42.738C79.7331 42.8716 79.8667 42.8716 79.8667 42.8716L80.0002 42.738L80.1338 41.4025L81.4693 41.536C81.87 41.536 82.1371 41.6696 82.5378 41.8031L83.8733 42.0703L83.4727 43.4058C83.4727 43.5394 83.4727 43.5394 83.6062 43.6729C83.7398 43.6729 83.7398 43.6729 83.7398 43.5394L84.4076 42.3374L85.6096 43.0052C85.8767 43.1387 86.2773 43.4058 86.5445 43.6729L87.6129 44.4743L86.678 45.5427C86.678 45.6763 86.5444 45.6763 86.678 45.8098H86.9451L88.0136 44.8749L88.8149 45.9434C89.082 46.2105 89.2156 46.6112 89.4827 46.8783L90.1505 48.0803L88.9485 48.7481C88.8149 48.7481 88.8149 48.8816 88.8149 49.0152C88.8149 49.1487 88.9485 49.1487 88.9485 49.1487L90.284 48.7481L90.6847 50.0836C90.8182 50.4843 90.8183 50.7514 90.9518 51.1521L91.0854 52.4876L89.7498 52.6212C89.6162 52.6212 89.6162 52.7547 89.6162 52.7547C89.6162 52.8883 89.7498 52.8883 89.7498 52.8883L91.0854 53.0219L90.9518 54.3574C90.9518 54.7581 90.8182 55.0252 90.6847 55.4259L90.4176 56.7614L89.082 56.3607C88.9485 56.3607 88.9485 56.3607 88.9485 56.4943C88.9485 56.6278 88.9485 56.7614 89.082 56.7614L90.284 57.4292L89.6162 58.6312C89.4827 58.8983 89.2156 59.299 88.9485 59.5661L88.1471 60.6345L87.0787 59.6996H86.8116C86.678 59.8332 86.8116 59.8332 86.8116 59.9668L87.7465 61.0352L86.678 61.8365C86.4109 62.1036 86.0102 62.2372 85.7431 62.5043L84.5411 63.1721L83.8733 61.9701C83.8733 61.8365 83.7398 61.8365 83.7398 61.8365C83.6062 61.8365 83.4727 61.9701 83.6062 62.1037L84.0069 63.4392L82.6713 63.7063C82.2707 63.8399 82.0036 63.8399 81.6029 63.9734L80.2673 64.107L80.1338 62.7714ZM80.0002 47.4125C77.062 47.4125 74.5244 49.8165 74.5244 52.8883C74.5244 55.8265 76.9284 58.3641 80.0002 58.3641C82.9384 58.3641 85.476 55.9601 85.476 52.8883C85.3425 49.8165 82.9384 47.4125 80.0002 47.4125Z" fill="white"/>
<path d="M88.4141 52.7549C88.4141 51.9536 88.9483 51.4193 89.7497 51.2858C89.7497 51.0187 89.6161 50.618 89.6161 50.3509C88.9483 50.618 88.147 50.2173 87.7463 49.5495C87.4792 48.8818 87.7463 48.0804 88.4141 47.6798C88.2806 47.4126 88.0134 47.1455 87.8799 46.8784C87.3457 47.4126 86.4108 47.4126 85.8766 46.7449C85.3423 46.2106 85.3423 45.2758 85.743 44.7415C85.4759 44.608 85.2088 44.3409 84.9417 44.2073C84.541 44.8751 83.7396 45.1422 83.0719 44.8751C82.4041 44.608 82.0034 43.8066 82.2705 43.0053C82.0034 42.8717 81.6028 42.8717 81.3356 42.8717C81.3356 43.6731 80.6679 44.2073 79.8665 44.2073C79.0652 44.2073 78.531 43.6731 78.3974 42.8717C78.1303 42.8717 77.7296 43.0053 77.4625 43.0053C77.7296 43.6731 77.329 44.4744 76.6612 44.8751C75.9934 45.1422 75.1921 44.8751 74.7914 44.2073C74.5243 44.3409 74.2572 44.608 73.9901 44.7415C74.5243 45.2758 74.5243 46.2106 73.8565 46.7449C73.3223 47.2791 72.3874 47.2791 71.8532 46.8784C71.7196 47.1455 71.4525 47.4126 71.3189 47.6798C71.9867 48.0804 72.2538 48.8818 71.9867 49.5495C71.7196 50.2173 70.9183 50.618 70.117 50.3509C69.9834 50.618 69.9834 51.0187 69.9834 51.2858C70.7847 51.2858 71.3189 51.9536 71.3189 52.7549C71.3189 53.5562 70.7847 54.0904 69.9834 54.224C69.9834 54.4911 70.117 54.8918 70.117 55.1589C70.7847 54.8918 71.5861 55.2924 71.9867 55.9602C72.2538 56.628 71.9867 57.4293 71.3189 57.83C71.4525 58.0971 71.7196 58.3642 71.8532 58.6313C72.3874 58.0971 73.3223 58.0971 73.8565 58.7649C74.3907 59.2991 74.3907 60.234 73.9901 60.7682C74.2572 60.9018 74.5243 61.1689 74.7914 61.3025C75.1921 60.6347 75.9934 60.3676 76.6612 60.6347C77.329 60.9018 77.7296 61.7031 77.4625 62.5045C77.7296 62.638 78.1303 62.638 78.3974 62.638C78.3974 61.8367 79.0652 61.3025 79.8665 61.3025C80.6679 61.3025 81.2021 61.8367 81.3356 62.638C81.6028 62.638 82.0034 62.5045 82.2705 62.5045C82.0034 61.8367 82.4041 61.0353 83.0719 60.6347C83.7396 60.3676 84.541 60.6347 84.9417 61.3025C85.2088 61.1689 85.4759 60.9018 85.743 60.7682C85.2088 60.234 85.2088 59.2991 85.8766 58.7649C86.4108 58.2307 87.3457 58.2307 87.8799 58.6313C88.0134 58.3642 88.2806 58.0971 88.4141 57.83C87.7463 57.4293 87.4792 56.628 87.7463 55.9602C88.0134 55.2924 88.8148 54.8918 89.6161 55.1589C89.7497 54.8918 89.7497 54.4911 89.7497 54.224C89.0819 54.224 88.4141 53.5562 88.4141 52.7549ZM80.0001 59.5662C76.2605 59.5662 73.3223 56.4944 73.3223 52.8884C73.3223 49.1489 76.3941 46.2106 80.0001 46.2106C83.7396 46.2106 86.6779 49.2824 86.6779 52.8884C86.6779 56.4944 83.6061 59.5662 80.0001 59.5662Z" fill="white"/>
<path d="M116.327 55.9599C116.327 55.2921 116.06 54.7579 115.526 54.4908C115.526 54.3572 115.526 54.2237 115.526 54.2237C116.06 53.9566 116.461 53.4224 116.461 52.8881C116.461 52.2204 116.06 51.6861 115.526 51.5526C115.526 51.419 115.526 51.2855 115.526 51.2855C116.06 51.0184 116.327 50.4841 116.327 49.8163C116.327 49.1486 115.793 48.7479 115.259 48.4808C115.259 48.3472 115.259 48.2137 115.259 48.2137C115.793 47.9466 116.06 47.2788 115.927 46.7446C115.793 46.0768 115.392 45.6761 114.725 45.5426C114.725 45.409 114.725 45.2755 114.591 45.2755C115.125 44.8748 115.259 44.3406 115.125 43.6728C114.992 43.005 114.457 42.6043 113.923 42.6043C113.923 42.4708 113.79 42.3372 113.79 42.3372C114.19 41.9366 114.457 41.2688 114.19 40.7346C113.923 40.2003 113.389 39.7996 112.855 39.7996C112.855 39.6661 112.721 39.5325 112.721 39.5325C113.122 39.1319 113.255 38.4641 112.988 37.9299C112.721 37.3956 112.187 36.995 111.519 36.995C111.519 36.8614 111.386 36.8614 111.386 36.7279C111.786 36.1937 111.786 35.6594 111.519 34.9916C111.252 34.4574 110.584 34.1903 110.05 34.1903C110.05 34.0567 109.917 34.0568 109.917 33.9232C110.184 33.389 110.184 32.7212 109.917 32.187C109.516 31.6527 108.982 31.5192 108.314 31.5192C108.314 31.3856 108.18 31.3856 108.18 31.2521C108.447 30.7179 108.447 30.0501 108.047 29.6494C107.646 29.1152 106.978 28.9816 106.444 29.1152C106.311 28.9816 106.311 28.9816 106.177 28.8481C106.444 28.3138 106.311 27.6461 105.91 27.2454C105.509 26.8447 104.841 26.7112 104.307 26.9783C104.174 26.8447 104.174 26.8447 104.04 26.7112C104.174 26.177 104.04 25.5092 103.506 25.1085C102.972 24.7078 102.304 24.7078 101.903 24.975C101.77 24.975 101.77 24.8414 101.636 24.8414C101.77 24.3072 101.503 23.6394 100.968 23.2387C100.434 22.8381 99.7663 22.8381 99.2321 23.2387C99.0985 23.2387 99.0985 23.1052 98.965 23.1052C99.0985 22.5709 98.8314 21.9032 98.1636 21.6361C97.6294 21.3689 96.9616 21.3689 96.4274 21.7696C96.2938 21.7696 96.2938 21.6361 96.1603 21.6361C96.1603 21.1018 95.8932 20.434 95.2254 20.1669C94.6912 19.8998 94.0234 20.0334 93.6227 20.434C93.4892 20.434 93.3556 20.3005 93.3556 20.3005C93.3556 19.7663 92.9549 19.232 92.4207 18.9649C91.8865 18.6978 91.2187 18.9649 90.818 19.3656C90.6845 19.3656 90.5509 19.232 90.5509 19.232C90.4174 18.6978 90.0167 18.1636 89.4825 18.0301C88.8147 17.8965 88.2805 18.1636 87.8798 18.5643C87.7463 18.5643 87.6127 18.5643 87.6127 18.4307C87.4791 17.8965 87.0785 17.3623 86.4107 17.2287C85.7429 17.0951 85.2087 17.3623 84.9416 17.8965C84.808 17.8965 84.6744 17.8965 84.6744 17.8965C84.5409 17.3623 84.0067 16.9616 83.3389 16.828C82.6711 16.828 82.1369 17.0952 81.8698 17.6294C81.7362 17.6294 81.6027 17.6294 81.6027 17.6294C81.3356 17.0952 80.8013 16.6945 80.2671 16.6945C79.5993 16.6945 79.0651 17.0952 78.9316 17.6294C78.798 17.6294 78.6644 17.6294 78.6644 17.6294C78.3973 17.0952 77.8631 16.828 77.1953 16.828C76.5275 16.828 76.1269 17.3623 75.8598 17.8965C75.7262 17.8965 75.5927 17.8965 75.5927 17.8965C75.3255 17.3623 74.6578 17.0951 74.1235 17.2287C73.4558 17.3623 73.0551 17.7629 72.9215 18.4307C72.788 18.4307 72.6544 18.4307 72.6544 18.5643C72.2538 18.03 71.7195 17.8965 71.0518 18.0301C70.384 18.1636 69.9833 18.6978 69.9833 19.232C69.8497 19.232 69.7162 19.3656 69.7162 19.3656C69.3155 18.9649 68.6478 18.6978 68.1135 18.9649C67.5793 19.232 67.1786 19.7663 67.1786 20.3005C67.0451 20.3005 66.9115 20.434 66.9115 20.434C66.5109 20.0334 65.8431 19.8998 65.3088 20.1669C64.7746 20.434 64.374 20.9683 64.374 21.6361C64.2404 21.6361 64.2404 21.7696 64.1068 21.7696C63.5726 21.3689 63.0384 21.3689 62.3706 21.6361C61.8364 21.9032 61.5693 22.5709 61.5693 23.1052C61.4357 23.1052 61.4357 23.2387 61.3022 23.2387C60.7679 22.9716 60.1002 22.9716 59.566 23.2387C59.0317 23.6394 58.8982 24.1736 58.8982 24.8414C58.7646 24.8414 58.7646 24.975 58.631 24.975C58.0968 24.7078 57.429 24.7078 57.0284 25.1085C56.4942 25.5092 56.3606 26.177 56.4942 26.7112C56.3606 26.8447 56.3606 26.8447 56.2271 26.9783C55.6928 26.7112 55.025 26.8447 54.6244 27.2454C54.2237 27.6461 54.0901 28.3138 54.3573 28.8481C54.2237 28.9816 54.2237 28.9816 54.0901 29.1152C53.5559 28.9816 52.8882 29.1152 52.4875 29.6494C52.0868 30.1836 52.0868 30.8514 52.3539 31.2521C52.3539 31.3856 52.2204 31.3856 52.2204 31.5192C51.6861 31.3856 51.0184 31.6527 50.6177 32.187C50.217 32.7212 50.217 33.389 50.6177 33.9232C50.6177 34.0568 50.4841 34.0567 50.4841 34.1903C49.9499 34.0567 49.2821 34.3239 49.015 34.9916C48.7479 35.5259 48.7479 36.1937 49.1486 36.7279C49.1486 36.8614 49.015 36.8614 49.015 36.995C48.4808 36.995 47.813 37.2621 47.5459 37.9299C47.2788 38.4641 47.4124 39.1319 47.813 39.5325C47.813 39.6661 47.6795 39.7996 47.6795 39.7996C47.1452 39.7996 46.611 40.2003 46.3439 40.7346C46.0768 41.2688 46.3439 41.9366 46.7446 42.3372C46.7446 42.4708 46.611 42.6043 46.611 42.6043C46.0768 42.7379 45.5426 43.1386 45.409 43.6728C45.2755 44.3406 45.5426 44.8748 45.9432 45.2755C45.9432 45.409 45.9432 45.5426 45.8097 45.5426C45.2755 45.6761 44.7412 46.0768 44.6077 46.7446C44.4741 47.4123 44.7412 47.9466 45.2755 48.2137C45.2755 48.3472 45.2755 48.4808 45.2755 48.4808C44.7412 48.6143 44.3406 49.1486 44.207 49.8163C44.207 50.4841 44.4741 51.0184 45.0083 51.2855C45.0083 51.419 45.0083 51.5526 45.0083 51.5526C44.4741 51.8197 44.0735 52.3539 44.0735 52.8881C44.0735 53.5559 44.4741 54.0901 45.0083 54.2237C45.0083 54.3573 45.0083 54.4908 45.0083 54.4908C44.4741 54.7579 44.207 55.2921 44.207 55.9599C44.207 56.6277 44.7412 57.0284 45.2755 57.2955C45.2755 57.429 45.2755 57.5626 45.2755 57.5626C44.7412 57.8297 44.4741 58.4975 44.6077 59.0317C44.7412 59.6995 45.1419 60.1002 45.8097 60.2337C45.8097 60.3673 45.8097 60.5008 45.9432 60.5008C45.409 60.9015 45.2755 61.4357 45.409 62.1035C45.5426 62.7713 46.0768 63.1719 46.611 63.1719C46.611 63.3055 46.7446 63.4391 46.7446 63.4391C46.3439 63.8397 46.0768 64.5075 46.3439 65.0417C46.611 65.576 47.1452 65.9766 47.6795 65.9766C47.6795 66.1102 47.813 66.2437 47.813 66.2437C47.4124 66.6444 47.2788 67.3122 47.5459 67.8464C47.813 68.3806 48.3472 68.7813 49.015 68.7813C49.015 68.9149 49.1486 68.9149 49.1486 69.0484C48.7479 69.5826 48.7479 70.1169 49.015 70.7846C49.2821 71.3189 49.9499 71.586 50.4841 71.586C50.4841 71.7195 50.6177 71.7195 50.6177 71.8531C50.3506 72.3873 50.3506 73.0551 50.6177 73.5893C51.0184 74.1235 51.5526 74.2571 52.2204 74.2571C52.2204 74.3906 52.3539 74.3906 52.3539 74.5242C52.0868 75.0584 52.0868 75.7262 52.4875 76.1269C52.8882 76.6611 53.5559 76.7946 54.0901 76.6611C54.2237 76.7946 54.2237 76.7946 54.3573 76.9282C54.0901 77.4624 54.2237 78.1302 54.6244 78.5309C55.025 78.9315 55.6928 79.0651 56.2271 78.798C56.3606 78.9315 56.3606 78.9315 56.4942 79.0651C56.3606 79.5993 56.4942 80.2671 57.0284 80.6678C57.5626 81.0684 58.2304 81.0684 58.631 80.8013C58.7646 80.8013 58.7646 80.9349 58.8982 80.9349C58.7646 81.4691 59.0317 82.1369 59.566 82.5375C60.1002 82.9382 60.7679 82.9382 61.3022 82.5375C61.4357 82.5375 61.4357 82.6711 61.5693 82.6711C61.4357 83.2053 61.7028 83.8731 62.3706 84.1402C62.9048 84.4073 63.5726 84.4073 64.1068 84.0067C64.2404 84.0067 64.2404 84.1402 64.374 84.1402C64.374 84.6745 64.6411 85.3422 65.3088 85.6093C65.8431 85.8764 66.5109 85.7429 66.9115 85.3422C67.0451 85.3422 67.1786 85.4758 67.1786 85.4758C67.1786 86.01 67.5793 86.5442 68.1135 86.8113C68.6478 87.0785 69.3155 86.8113 69.7162 86.4107C69.8497 86.4107 69.9833 86.5442 69.9833 86.5442C70.1169 87.0784 70.5175 87.6127 71.0518 87.7462C71.7195 87.8798 72.2538 87.6127 72.6544 87.212C72.788 87.212 72.9215 87.212 72.9215 87.3456C73.0551 87.8798 73.4558 88.414 74.1235 88.5476C74.7913 88.6811 75.3255 88.414 75.5927 87.8798C75.7262 87.8798 75.8598 87.8798 75.8598 87.8798C75.9933 88.414 76.5275 88.8147 77.1953 88.9482C77.8631 88.9482 78.3973 88.6811 78.6644 88.1469C78.798 88.1469 78.9316 88.1469 78.9316 88.1469C79.1987 88.6811 79.7329 89.0818 80.2671 89.0818C80.9349 89.0818 81.4691 88.6811 81.6027 88.1469C81.7362 88.1469 81.8698 88.1469 81.8698 88.1469C82.1369 88.6811 82.6711 88.9482 83.3389 88.9482C84.0067 88.9482 84.4073 88.414 84.6744 87.8798C84.808 87.8798 84.9416 87.8798 84.9416 87.8798C85.2087 88.414 85.8765 88.6811 86.4107 88.5476C87.0785 88.414 87.4791 88.0133 87.6127 87.3456C87.7462 87.3456 87.8798 87.3456 87.8798 87.212C88.2805 87.7462 88.8147 87.8798 89.4825 87.7462C90.1502 87.6127 90.5509 87.0784 90.5509 86.5442C90.6845 86.5442 90.818 86.4107 90.818 86.4107C91.2187 86.8113 91.8865 87.0785 92.4207 86.8113C92.9549 86.5442 93.3556 86.01 93.3556 85.4758C93.4891 85.4758 93.6227 85.3422 93.6227 85.3422C94.0234 85.7429 94.6912 85.8764 95.2254 85.6093C95.7596 85.3422 96.1603 84.808 96.1603 84.1402C96.2938 84.1402 96.2938 84.0067 96.4274 84.0067C96.9616 84.4073 97.4958 84.4073 98.1636 84.1402C98.6978 83.8731 98.965 83.2053 98.965 82.6711C99.0985 82.6711 99.0985 82.5375 99.2321 82.5375C99.7663 82.8047 100.434 82.8047 100.968 82.5375C101.503 82.1369 101.636 81.6027 101.636 80.9349C101.77 80.9349 101.77 80.8013 101.903 80.8013C102.437 81.0684 103.105 81.0684 103.506 80.6678C104.04 80.2671 104.174 79.5993 104.04 79.0651C104.174 78.9315 104.174 78.9315 104.307 78.798C104.841 79.0651 105.509 78.9315 105.91 78.5309C106.311 78.1302 106.444 77.4624 106.177 76.9282C106.311 76.7946 106.311 76.7946 106.444 76.6611C106.978 76.7946 107.646 76.6611 108.047 76.1269C108.447 75.5927 108.447 74.9249 108.18 74.5242C108.18 74.3906 108.314 74.3906 108.314 74.2571C108.848 74.3906 109.516 74.1235 109.917 73.5893C110.317 73.0551 110.317 72.3873 109.917 71.8531C109.917 71.7195 110.05 71.7195 110.05 71.586C110.584 71.7195 111.252 71.4524 111.519 70.7846C111.786 70.2504 111.786 69.5826 111.386 69.0484C111.386 68.9149 111.519 68.9149 111.519 68.7813C112.053 68.7813 112.721 68.5142 112.988 67.8464C113.255 67.3122 113.122 66.6444 112.721 66.2437C112.721 66.1102 112.855 65.9766 112.855 65.9766C113.389 65.9766 113.923 65.576 114.19 65.0417C114.457 64.5075 114.19 63.8397 113.79 63.4391C113.79 63.3055 113.923 63.1719 113.923 63.1719C114.457 63.0384 114.992 62.6377 115.125 62.1035C115.259 61.4357 114.992 60.9015 114.591 60.5008C114.591 60.3673 114.591 60.2337 114.725 60.2337C115.259 60.1002 115.793 59.6995 115.927 59.0317C116.06 58.3639 115.793 57.8297 115.259 57.5626C115.259 57.429 115.259 57.2955 115.259 57.2955C115.927 57.1619 116.327 56.6277 116.327 55.9599ZM80 84.808C62.3706 84.808 48.0801 70.5175 48.0801 52.8881C48.0801 35.2588 62.3706 20.9683 80 20.9683C97.6294 20.9683 111.92 35.2588 111.92 52.8881C111.92 70.5175 97.6294 84.808 80 84.808Z" fill="white"/>
<path d="M80.0005 55.6927C81.6232 55.6927 82.9387 54.3772 82.9387 52.7545C82.9387 51.1318 81.6232 49.8163 80.0005 49.8163C78.3777 49.8163 77.0622 51.1318 77.0622 52.7545C77.0622 54.3772 78.3777 55.6927 80.0005 55.6927Z" fill="white"/>
<path d="M77.4629 121.268V95.8928H73.8569V93.8895H79.4662V121.268H77.4629Z" fill="white"/>
<path d="M66.9117 116.995L60.2339 113.923V93.8895H69.0486V95.8928H62.2373V112.587L67.8466 115.125L66.9117 116.995Z" fill="white"/>
<path d="M76.4525 94.3349L67.7627 117.464L69.6381 118.168L78.3278 95.0395L76.4525 94.3349Z" fill="white"/>
<path d="M68.5148 104.44H61.3028V106.444H68.5148V104.44Z" fill="white"/>
<path d="M78.3974 104.44H73.4558V106.444H78.3974V104.44Z" fill="white"/>
<path d="M99.9003 113.789V93.8895H107.78V95.8928H101.904V110.584L107.379 108.046L108.314 109.783L99.9003 113.789Z" fill="white"/>
<path d="M90.6851 118.063V93.8895H92.6884V114.991L97.0957 112.854V93.8895H99.0991V114.19L90.6851 118.063Z" fill="white"/>
<path d="M107.913 104.44H100.968V106.444H107.913V104.44Z" fill="white"/>
<path d="M59.4327 113.789L57.9636 112.854L51.0187 109.515V94.9576H53.022V108.313L57.4294 110.317V108.447H59.4327V113.789Z" fill="white"/>
<path d="M81.6029 122.337V93.8895H90.284V97.629H88.2807V95.8928H83.6062V119.132L88.0135 117.128V106.444H86.1438V104.44H90.0169V118.464L81.6029 122.337Z" fill="white"/>
<path d="M160 65.4425H112.187V40.2005H160L149.983 52.8883L160 65.4425ZM114.858 62.7714H154.524L146.644 52.7547L154.524 42.738H114.858V62.7714Z" fill="white"/>
<path d="M47.813 65.4424H0L10.0167 52.7546L0 40.0668H47.813V65.4424ZM5.47579 62.7713H45.1419V42.8714H5.47579L13.3556 52.8881L5.47579 62.7713Z" fill="white"/>
<path d="M15.4926 59.5664V46.6115H19.7663V48.3477H17.3623V52.0873H19.6328V53.6899H17.3623V57.8302H19.7663V59.5664H15.4926Z" fill="white"/>
<path d="M21.2357 55.9601V54.7581H23.1055V56.0937C23.1055 56.7615 23.1055 57.2957 23.2391 57.5628C23.3726 57.8299 23.6397 57.9635 23.9068 57.9635C24.3075 57.9635 24.4411 57.8299 24.5746 57.5628C24.7082 57.2957 24.7082 56.895 24.7082 56.3608C24.7082 55.8266 24.5746 55.2923 24.4411 54.8917C24.3075 54.491 23.9068 54.0903 23.5062 53.6897L22.5713 52.7548C22.1706 52.3541 21.77 51.8199 21.5028 51.2857C21.2357 50.7514 21.1022 50.2172 21.1022 49.5494C21.1022 48.481 21.3693 47.6796 21.7699 47.1454C22.1706 46.6112 22.8384 46.3441 23.9068 46.3441C24.9753 46.3441 25.6431 46.6112 25.9102 47.279C26.3108 47.9468 26.4444 48.7481 26.4444 49.9501V50.7514H24.7082V49.9501C24.7082 49.2823 24.7082 48.8817 24.5746 48.6145C24.4411 48.3474 24.3075 48.2139 23.9068 48.2139C23.6397 48.2139 23.3726 48.3474 23.2391 48.481C23.1055 48.7481 22.9719 49.0152 22.9719 49.4159C22.9719 49.8166 23.1055 50.2172 23.2391 50.3508C23.3726 50.6179 23.6397 50.885 24.0404 51.2857L25.1088 52.4877C25.6431 53.0219 26.0437 53.6897 26.3108 54.2239C26.578 54.7581 26.7115 55.4259 26.7115 56.0937C26.7115 57.2957 26.4444 58.2306 26.0437 58.7648C25.6431 59.299 24.9753 59.5661 23.9068 59.5661C22.8384 59.5661 22.1706 59.299 21.7699 58.6312C21.5028 58.097 21.2357 57.1621 21.2357 55.9601Z" fill="white"/>
<path d="M28.848 59.5664V48.3477H27.3789V46.6115H32.3205V48.3477H30.8514V59.5664H28.848Z" fill="white"/>
<path d="M33.2552 59.5664V46.6115H36.1935C37.1284 46.6115 37.7962 46.8786 38.1968 47.4128C38.5975 47.947 38.8646 48.7484 38.8646 49.9504V55.8268C38.8646 57.1624 38.5975 58.0973 38.1968 58.6315C37.7962 59.2993 36.9948 59.5664 36.0599 59.5664H33.2552ZM35.2586 57.9637H35.9264C36.327 57.9637 36.5941 57.8302 36.7277 57.563C36.8613 57.2959 36.9948 56.8953 36.9948 56.2275V49.8168C36.9948 49.149 36.8613 48.6148 36.7277 48.3477C36.5941 48.0806 36.327 47.947 35.9264 47.947H35.3921V57.9637H35.2586Z" fill="white"/>
<path d="M40.4678 59.5663V57.83H42.0704V59.5663H40.4678Z" fill="white"/>
<path d="M121.67 59.5663V49.1489C121.536 49.2825 121.269 49.5496 121.002 49.5496C120.735 49.6831 120.334 49.6832 120.067 49.6832V48.214C120.468 48.214 120.869 47.9469 121.269 47.6798C121.67 47.4127 121.937 47.012 122.071 46.6114H123.54V59.5663H121.67Z" fill="white"/>
<path d="M130.084 58.7648C129.683 59.4326 129.016 59.6997 128.081 59.6997C127.146 59.6997 126.478 59.4326 126.077 58.8984C125.677 58.3642 125.41 57.5628 125.41 56.3608V55.693H127.279V55.9602C127.279 56.7615 127.279 57.2957 127.413 57.5628C127.547 57.8299 127.68 57.9635 127.947 57.9635C128.214 57.9635 128.481 57.9635 128.481 57.8299C128.615 57.6964 128.615 57.5628 128.615 57.4293C128.615 57.2957 128.615 56.895 128.615 56.2273V54.3575C128.348 54.491 127.947 54.6246 127.413 54.6246C126.478 54.6246 125.944 54.3575 125.543 53.6897C125.143 53.0219 125.009 52.087 125.009 50.885V50.3508C125.009 48.7481 125.276 47.6797 125.81 47.1455C126.211 46.7448 126.879 46.4777 127.68 46.4777C128.481 46.4777 129.149 46.6112 129.55 47.0119C129.951 47.279 130.218 47.8132 130.351 48.3475C130.485 48.8817 130.485 49.683 130.485 50.6179V55.8266C130.752 57.1622 130.485 58.0971 130.084 58.7648ZM127.947 53.0219C128.481 53.0219 128.749 52.7548 128.749 52.3541V49.9501C128.749 49.2824 128.749 48.8817 128.615 48.6146C128.481 48.3475 128.214 48.2139 127.947 48.2139C127.68 48.2139 127.413 48.3475 127.279 48.6146C127.146 48.8817 127.146 49.4159 127.146 49.9501V51.1521C127.146 51.8199 127.146 52.3541 127.279 52.6213C127.413 52.8884 127.68 53.0219 127.947 53.0219Z" fill="white"/>
<path d="M137.296 58.8984C136.896 59.4326 136.094 59.6997 135.159 59.6997C134.224 59.6997 133.557 59.4326 133.022 58.8984C132.622 58.3642 132.355 57.5628 132.355 56.3608C132.355 56.3608 132.355 55.9602 132.355 55.4259C132.355 54.7582 132.488 54.2239 132.622 53.6897C132.755 53.1555 133.022 52.7548 133.423 52.4877C132.755 51.9535 132.355 51.0186 132.355 49.683C132.355 48.6146 132.622 47.6797 133.022 47.279C133.423 46.7448 134.224 46.4777 135.159 46.4777C136.094 46.4777 136.896 46.7448 137.296 47.279C137.697 47.8132 137.964 48.6146 137.964 49.8166C137.964 51.1521 137.563 52.087 136.896 52.6213C137.163 52.8884 137.43 53.289 137.697 53.8233C137.83 54.3575 137.964 55.0253 137.964 55.5595V56.4944C137.964 57.4293 137.697 58.3642 137.296 58.8984ZM134.492 57.6964C134.625 57.9635 134.892 58.0971 135.159 58.0971C135.56 58.0971 135.693 57.9635 135.827 57.6964C135.961 57.4293 135.961 57.0286 135.961 56.3608V55.2924C135.961 53.9568 135.694 53.289 135.159 53.289C134.892 53.289 134.625 53.4226 134.492 53.8233C134.358 54.2239 134.224 54.6246 134.224 55.2924V56.3608C134.358 56.8951 134.358 57.4293 134.492 57.6964ZM134.759 51.8199C134.892 51.9535 135.026 51.9535 135.159 51.9535C135.293 51.9535 135.426 51.9535 135.56 51.8199C135.694 51.6864 135.827 51.5528 135.827 51.1521C135.961 50.885 135.961 50.3508 135.961 49.8166C135.961 49.2823 135.961 48.8817 135.827 48.6146C135.827 48.3475 135.694 48.2139 135.56 48.0804C135.426 47.9468 135.293 47.9468 135.026 47.9468C134.759 47.9468 134.625 47.9468 134.492 48.0804C134.224 48.2139 134.091 48.8817 134.091 49.8166C134.358 50.885 134.492 51.5528 134.759 51.8199Z" fill="white"/>
<path d="M142.104 59.6998C140.368 59.6998 139.567 58.765 139.567 57.0287V55.4261H141.436V56.8952C141.436 57.4294 141.57 57.8301 141.837 57.9636C141.971 57.9636 142.104 58.0972 142.238 58.0972C142.638 58.0972 142.905 57.6965 142.905 56.8952V53.5563C142.905 53.022 142.905 52.7549 142.772 52.4878C142.638 52.2207 142.505 52.0872 142.238 52.0872C141.703 52.0872 141.436 52.4878 141.436 53.2892L139.7 53.1556V46.6114H144.508V48.3476H141.57V51.0187C141.703 50.8852 141.837 50.7516 142.104 50.618C142.371 50.4845 142.638 50.4845 142.905 50.4845C143.707 50.4845 144.241 50.7516 144.508 51.4194C144.775 52.0872 144.909 53.1556 144.909 54.6247C144.909 56.0938 144.909 57.0287 144.775 57.5629C144.642 58.0972 144.508 58.4978 144.375 58.8985C143.707 59.4327 143.039 59.6998 142.104 59.6998Z" fill="white"/>
<path d="M46.0771 26.8446L46.7449 26.1769L41.2691 20.7011L40.6013 21.3689L38.9986 19.7662L43.6731 15.0917C45.81 12.9548 47.5462 12.8213 48.8818 14.1568C49.9502 15.2253 50.2174 16.0266 49.5496 17.3622C50.7516 16.6944 52.0871 16.5608 53.2891 17.8964C55.0253 19.6326 54.8918 21.5024 52.3542 23.9064L47.5462 28.7144L46.0771 26.8446ZM45.81 19.8997L46.6113 19.0984C47.2791 18.4306 47.1456 17.8964 46.4778 17.2286C45.9436 16.6944 45.1422 16.6944 44.7416 17.0951L43.9402 17.8964L45.81 19.8997ZM50.3509 22.4373C50.8851 21.9031 51.0187 20.9682 50.3509 20.3004C49.6831 19.6326 48.8818 19.4991 48.214 20.3004L47.2791 21.2353L49.416 23.3722L50.3509 22.4373Z" fill="white"/>
<path d="M55.1587 6.41042L56.3606 8.41376L55.4258 8.948L59.4324 15.4922L60.3673 14.958L61.5693 16.9614L56.4942 20.0331L55.2922 18.0298L56.2271 17.4956L52.2204 10.9513L51.2855 11.4856L50.0835 9.48221L55.1587 6.41042Z" fill="white"/>
<path d="M72.3878 10.8179C71.5865 12.4206 70.2509 14.1568 67.9805 14.8246C64.3744 16.0266 61.3027 14.4239 59.9671 10.6844C58.6315 6.81123 60.902 3.47232 63.0389 2.80454C64.7751 2.27032 65.8436 2.9381 65.9771 3.07166L66.1107 2.00321L68.7818 1.20187L70.3845 6.00989L67.3127 6.94478C66.912 5.87633 65.9771 4.94144 64.7751 5.3421C63.5731 5.74277 63.306 7.47901 63.8402 9.34879C64.3745 11.085 65.71 12.287 67.3127 11.7528C68.7818 11.3521 69.316 9.48234 69.4496 9.21523L72.3878 10.8179Z" fill="white"/>
<path d="M79.8666 5.87646C79.8666 5.47579 80.2673 4.80802 80.5344 4.2738L81.4693 2.40401H80.5344V0.133554L85.3424 0V2.27046H84.4075L81.2022 8.14691V10.1502H82.1371V12.4207L76.3942 12.5543V10.2838H77.4626V8.14691L73.8566 2.40401H72.9217V0.133554L79.0653 0V2.27046H78.1304L79.1988 4.14023C79.3324 4.80801 79.5995 5.60935 79.8666 5.87646Z" fill="white"/>
<path d="M96.962 13.623C95.4929 14.5579 93.356 15.2257 91.0855 14.5579C87.4795 13.4895 85.7433 10.5513 86.8117 6.67813C87.8802 2.67146 91.4862 1.20233 93.7567 1.87011C95.4929 2.40434 96.0271 3.47279 96.0271 3.7399L96.6949 2.93856L99.366 3.7399L98.0304 8.54791L94.9587 7.74656C95.2258 6.67812 94.9587 5.47612 93.7567 5.07546C92.5546 4.67479 91.3527 6.01035 90.8184 7.88013C90.2842 9.61636 90.8184 11.3526 92.4211 11.7532C93.8902 12.1539 95.3593 10.9519 95.6264 10.8184L96.962 13.623Z" fill="white"/>
<path d="M108.18 8.54784L106.978 10.5512L106.177 10.017L102.037 16.5612L104.04 17.7632L105.242 15.8934L107.78 17.4961L105.376 21.3692L96.9618 16.1605L98.1638 14.1572L98.9651 14.6914L103.105 8.14716L102.304 7.61295L103.506 5.60961L108.18 8.54784Z" fill="white"/>
<path d="M122.338 21.3691L119.399 24.0402L117.263 21.7697L118.465 20.7013L116.595 18.5644L114.725 20.1671L116.995 22.7046L115.259 24.3073L112.989 21.7697L110.852 23.7731L112.722 25.91L113.924 24.8415L116.061 27.112L113.122 29.7831L105.91 21.9033L107.647 20.3006L108.448 21.102L114.191 15.8933L113.389 15.0919L115.126 13.4893L122.338 21.3691Z" fill="white"/>
</svg>
