<svg width="160" height="122" viewBox="0 0 160 122" fill="none" xmlns="http://www.w3.org/2000/svg">
<path d="M58.7 79.2C58.2 79.2 57.8 79.4 57.7 79.9C57.5 80.2 57.4 80.9 57.4 82V91.3C57.6 92.3 57.7 93 57.9 93.6C58.1 94.2 58.4 94.3 58.9 94.3C59.4 94.3 59.8 94.1 59.9 93.6C60.1 93.1 60.1 92.4 60.1 91.2V82C60.1 81.1 59.9 80.4 59.8 79.9C59.6 79.6 59.2 79.2 58.7 79.2Z" fill="white"/>
<path d="M7.9 72.7L11.9 70.6L16.1 72.7L15.4 68.2L18.7 64.8L14 64.1L11.9 60L10 64.1L5.2 64.8L8.6 68.2L7.9 72.7Z" fill="white"/>
<path d="M144.1 72.7L148.3 70.6L152.5 72.7L151.6 68.2L154.9 64.8L150.4 64.1L148.3 60L146.2 64.1L141.5 64.8L145 68.2L144.1 72.7Z" fill="white"/>
<path d="M54.8 15.2C55.5 15.7 56.2 15.9 57.1 15.9C57.6 15.9 58 15.7 58.5 15.6L72 10.3C72.5 10.1 72.9 9.60002 72.7 8.90002C72.5 8.20002 72 7.90002 71.5 7.90002H57.1C54.8 7.90002 53.1 9.80002 53.1 11.9C53.1 13.3 53.8 14.5 54.8 15.2Z" fill="white"/>
<path d="M43.8 65.9C51.7 65.9 58.5 61 61.3 54.2L75.1 55.8C75.6 56 76.3 56 77 56C82.1 56 86.1 52 86.1 46.9C86.1 44.6 85.2 42.7 84 41.1L102.7 20.5C102.9 21.7 103.2 23.1 103.6 24.3C95.7 28.8 90.5 37.2 90.5 46.8H93.1C93.1 38.2 97.6 30.9 104.5 26.7C104.8 28.1 105.4 29.5 105.9 30.9C100.8 34.4 97.5 40.2 97.5 46.6C97.5 57.1 106.1 65.6 116.5 65.6C127 65.6 135.5 57 135.5 46.6C135.5 36.1 126.9 27.6 116.5 27.6C113.5 27.6 110.6 28.3 108.1 29.5C107.6 28.1 107.1 26.7 106.7 25.3C109.7 23.9 113 23.2 116.5 23.2V20.6C112.8 20.6 109.3 21.5 106 22.9C105 18.2 104.3 13.5 104.3 8.40002C104.3 7.90002 103.9 7.40002 103.4 7.20002C102.9 5.60002 101.5 4.40002 99.7 4.40002H98.5C98.5 4.20002 98.3 4.20002 98.3 4.10002L94.6 0.400024C94.1 -0.0999756 93.4 -0.0999756 92.9 0.400024C92.4 0.900024 92.4 1.60002 92.9 2.10002L96.6 5.80002C96.8 6.00002 97.1 6.10002 97.5 6.10002C97.8 6.10002 98.2 5.90002 98.4 5.80002C98.4 5.80002 98.6 5.60002 98.6 5.50002H99.8C100.8 5.50002 101.9 6.20002 102.2 7.20002C101.8 7.40002 101.7 7.70003 101.7 8.10003C101.7 8.60003 101.7 9.10002 101.7 9.70002C101.2 10.4 100.5 10.7 99.6 10.7H95.4C95.4 10.5 95.2 10.5 95.2 10.4L90.5 5.70002C90 5.20002 89.3 5.20002 88.8 5.70002C88.3 6.20002 88.3 6.90002 88.8 7.40002L93.5 12.1C93.7 12.3 94 12.4 94.4 12.4C94.7 12.4 95.1 12.2 95.3 12.1C95.3 12.1 95.5 11.9 95.5 11.8H99.7C100.6 11.8 101.3 11.6 101.8 11.1C101.8 12.5 102 14.1 102.1 15.5H62.5C62.5 15.5 62.5 15.5 62.3 15.5H62.1C62.1 15.5 62.1 15.5 61.9 15.5L61.7 15.7L56.8 23.4C53.1 21.3 48.8 20.1 44.2 20.1V22.7C48.2 22.7 52.1 23.7 55.4 25.7L53.3 29C50.5 27.4 47.5 26.7 44.2 26.7C33 27.9 24.6 36.5 24.6 47C24.8 57.3 33.4 65.9 43.8 65.9ZM108.3 37.2C110.2 40.9 112.5 44.4 115.1 47.7C115.3 48 115.8 48.2 116.1 48.2C116.5 48.2 116.6 48 117 47.9C117.5 47.6 117.7 46.7 117.2 46.2C114.6 43.1 112.5 39.7 110.6 36.1C110.4 35.9 110.4 35.8 110.3 35.6C112 34.7 114 34.2 116.2 34.2C123.2 34.2 129 40 129 47C129 54 123.2 59.8 116.2 59.8C109.2 59.8 103.4 54 103.4 47C103.4 43 105.3 39.5 108.1 37C108.1 37.1 108.3 37.1 108.3 37.2ZM107.4 35.2C107.6 35.5 107.7 35.7 107.7 36.1C104.6 38.5 102.5 42.6 102.5 46.9C102.5 54.4 108.6 60.5 116.1 60.5C123.6 60.5 129.7 54.4 129.7 46.9C129.7 39.4 123.6 33.3 116.1 33.3C113.8 33.3 111.7 33.8 109.8 34.9C109.6 34.6 109.5 34.4 109.5 34C111.6 33 113.9 32.4 116.1 32.4C124.1 32.4 130.8 39 130.8 47.1C130.8 55.1 124.2 61.8 116.1 61.8C108.1 61.8 101.4 55.2 101.4 47.1C101.5 42.1 103.8 37.8 107.4 35.2ZM57.1 52.8L56.1 52.6C57 50.9 57.5 48.9 57.5 46.8C57.5 44.9 57.2 43.1 56.5 41.6H57.5C58.2 43.2 58.5 45.1 58.5 46.8C58.5 49 58 50.9 57.1 52.8ZM43.7 50.2C45.4 50.2 47 48.8 47 46.9C47 46.2 46.8 45.5 46.5 45L47.2 44C47.9 44.7 48.2 45.7 48.2 46.8C48.2 49.2 46.3 51.2 43.8 51.2C41.4 51.2 39.4 49.3 39.4 46.8C39.2 44.5 41.1 42.4 43.6 42.4C43.9 42.4 44.5 42.4 44.8 42.6L44.1 43.6C43.9 43.6 43.8 43.6 43.6 43.6C41.9 43.6 40.3 45 40.3 46.9C40.3 48.8 41.7 50.2 43.7 50.2ZM45.9 41.3L43.8 41.5C40.8 41.5 38.4 43.9 38.4 46.9C38.4 49.9 40.8 52.3 43.6 52.3L54.6 53.5C52.3 57.2 48.3 59.6 43.8 59.6C36.8 59.6 31 53.8 31 46.8C31 39.8 36.8 34 43.8 34C45.9 34 47.8 34.5 49.6 35.4L45.9 41.3ZM46.3 51.4C48 50.5 49.1 48.8 49.1 46.7C49.1 45.3 48.6 43.9 47.5 43L48.2 42L55.4 41.5C56.1 43.1 56.4 44.8 56.4 46.6C56.4 49 55.9 51 55.2 52.5L46.3 51.4ZM61.7 53.3C62.4 51.4 62.9 49.1 62.9 46.8C62.9 44.9 62.6 43 62 41.2L70.4 40.7C69 42.3 68.1 44.4 68.1 46.8C68.1 49.9 69.7 52.7 72.1 54.3L61.7 53.3ZM85.6 46.9C85.1 51.3 81.6 54.9 77 54.9L75.3 54.7C71.6 53.8 69 50.7 69 46.8C69 44.4 70 42.1 71.8 40.7H72.7L72.9 40.9C71 42.3 69.9 44.4 69.9 46.8C69.9 50.8 73.2 54.3 77.4 54.3C81.6 54.3 84.9 51 84.9 46.8C84.9 45.1 84.4 43.5 83.3 42.3L83.8 41.8C84.9 43.2 85.6 44.9 85.6 46.9ZM77 50.5C79.1 50.5 80.8 48.8 80.8 46.7C80.8 46 80.6 45.5 80.3 45L80.8 44.3C81.3 45 81.5 45.9 81.5 46.7C81.5 49.3 79.4 51.4 76.8 51.4C74.2 51.4 72.1 49.3 72.1 46.7C72.3 45.5 73 44.3 73.8 43.4L74.1 44.1C73.4 44.8 73.1 45.7 73.1 46.7C73.2 48.8 74.9 50.5 77 50.5ZM77.2 41.3C76.7 41.3 76.3 41.3 76 41.5L75.3 40.6C75.8 40.4 76.3 40.4 77 40.4C78.2 40.4 79.3 40.7 80.3 41.3L79.8 42C79 41.4 78.1 41.3 77.2 41.3ZM79.1 42.8L78.6 43.5C78.1 43.3 77.7 43.2 77.2 43.2C77 43.2 76.9 43.2 76.7 43.2L76.2 42.3C76.5 42.3 76.7 42.3 77.1 42.3C77.7 42.3 78.4 42.5 79.1 42.8ZM76.9 39.3C76.6 39.3 76.4 39.3 76 39.3L74.8 39.5L74.6 39C75.3 38.8 76.2 38.7 77 38.7C78.6 38.7 80.1 39.2 81.4 40.1L80.9 40.6C79.7 39.9 78.4 39.3 76.9 39.3ZM71.3 47C71.3 50.1 73.7 52.6 76.9 52.6C80.1 52.6 82.5 50.2 82.5 47C82.5 45.8 82.2 44.7 81.5 43.9L82.4 43C83.3 44 83.6 45.4 83.6 46.8C83.6 50.3 80.6 53.3 77.1 53.3C73.6 53.3 70.6 50.3 70.6 46.8C70.6 44.7 71.6 43 73 41.7L73.3 42.6C72.1 43.7 71.3 45.3 71.3 47ZM96.4 23.4L82.1 39.3C80.7 38.3 79 37.7 77 37.7C76 37.7 75.1 37.9 74 38.2L66.7 23.4H96.4ZM62.4 20.1L72 39.1C71.8 39.3 71.7 39.3 71.5 39.4L68.4 39.6C66.7 34 63.2 29.3 58.6 26L62.4 20.1ZM57.1 28.3C60.9 31.1 63.9 35.3 65.5 40.2L61.7 40.4C60.5 36.9 58 33.8 55.1 31.7L57.1 28.3ZM52.8 35.2C54.7 36.6 56.1 38.5 57.2 40.6H56.2C55.2 38.9 53.9 37.3 52.4 36.1L52.8 35.2ZM55 40.7L48.9 41L51.7 36.8C53.1 37.9 54.1 39.3 55 40.7ZM43.8 32.2C46.2 32.2 48.5 32.9 50.6 33.9L50.1 34.8C48.2 33.8 46.1 33.2 43.8 33.2C36.3 33.2 30.2 39.3 30.2 46.8C30.2 54.3 36.3 60.4 43.8 60.4C48.9 60.4 53.4 57.6 55.7 53.4L56.7 53.6C54.3 58.3 49.4 61.5 43.8 61.5C35.6 61.5 29.1 54.9 29.1 46.8C29.2 38.8 35.8 32.2 43.8 32.2Z" fill="white"/>
<path d="M160 82H128.4V70.2H32V103.2H128.4V85.3H152L139.6 98.4L152 111.5H114.6V103.3H111.1V115H160L144.5 98.6L160 82ZM51.7 96.7H49.1V89.2L49.3 82.4L46.7 96.4H44.3L41.5 82.4L41.7 89.2V96.5H39V77H42.7L45.5 91.3L48 77H51.7V96.7ZM63.2 91C63.2 93.1 62.9 94.5 62.2 95.4C61.5 96.3 60.5 96.8 58.9 96.8C57.3 96.8 56.3 96.3 55.6 95.4C54.9 94.5 54.6 93 54.6 91V81.9C54.6 78.2 56 76.5 59 76.5C60.6 76.5 61.6 77 62.3 77.9C63 78.8 63.3 80.2 63.3 81.9V91H63.2ZM74.4 91.6C74.4 93.3 74.2 94.6 73.5 95.4C72.8 96.3 71.8 96.6 70.2 96.6C68.6 96.6 67.6 96.3 66.9 95.4C66.2 94.5 65.9 93.1 65.9 91.4V77H68.9V91.5C68.9 92.5 68.9 93.2 69.1 93.4C69.3 93.6 69.3 93.7 69.4 93.9C69.6 94.1 69.7 94.2 70.3 94.2C70.6 94.2 71 94 71.2 93.9C71.4 93.7 71.5 93.4 71.5 93C71.5 92.6 71.5 92.1 71.5 91.6V77H74.5V91.6H74.4ZM86.3 96.7H84.2L80 84.5L80.2 89.7V96.7H77.4V77H79.7L83.9 88.9L83.7 83.5V77H86.3V96.7ZM95.5 79.6H93.2V96.7H90.2V79.4H88V77H95.5V79.6ZM100.3 96.7H97.3V77H100.3V96.7ZM112.1 96.7H110.2L105.8 84.5L106 89.7V96.7H103.2V77H105.5L109.7 88.9L109.5 83.5V77H112.1V96.7ZM121.9 79.6H118.2V85.4H121.7V87.8H118.2V94.1H121.9V96.7H115.3V77H121.9V79.6Z" fill="white"/>
<path d="M45.4 111.5H8.2L20.4 98.6L8 85.5H31.8V81.8H0L15.5 98.4L0 115H48.9V103.3H45.4V111.5Z" fill="white"/>
<path d="M63.2 113.6C64.8 112.9 65.3 112 65.3 110.3C65.3 108 63.6 106.6 60.1 106.6H52.1V109.4H53.3V118.8H51.9V121.6H60.1C64.3 121.6 66 120.2 66 117.2C66 115.2 64.8 113.9 63.2 113.6ZM57.6 109.6H59C59.9 109.6 60.4 110.1 60.4 111.2C60.4 112.1 60.2 112.8 59 112.8H57.6V109.6ZM59.4 118.8V118.6H57.7V115H59.4C60.4 115 61.1 115.9 61.1 116.9C61.1 118.1 60.3 118.8 59.4 118.8Z" fill="white"/>
<path d="M67.6 109.4H69V118.8H67.6V121.6H74.8V118.8H73.4V109.4H74.8V106.6H67.6V109.4Z" fill="white"/>
<path d="M87.7 112L90.8 109.4H92.1V106.6H84.9V109.4H86.5L82.4 112.9V109.4H83.7V106.6H76.9V109.4H78.1V118.8H76.9V121.6H83.7V118.8H82.4V116.6L84 115.2L86.3 118.8H84.9V121.6H93.3V118.8H92.1L87.7 112Z" fill="white"/>
<path d="M95 109.4H96.4V118.8H95V121.6H107.9V116.7H104.3V118.6H100.8V115.2H104.8V112.4H100.8V109.4H104.3V111.3H107.9V106.6H95V109.4Z" fill="white"/>
</svg>
