<svg width="160" height="133" viewBox="0 0 160 133" fill="none" xmlns="http://www.w3.org/2000/svg">
<path d="M77.795 52.9217C80.7939 52.9217 83.2635 55.3914 83.2635 58.3903C83.2635 61.3892 80.7939 63.8589 77.795 63.8589C74.7961 63.8589 72.3264 61.3892 72.3264 58.3903C72.3264 55.3914 74.7961 52.9217 77.795 52.9217Z" fill="white"/>
<path d="M29.2835 58.2141C29.2835 56.8028 30.342 55.7444 31.7532 55.7444C33.1644 55.7444 34.2229 56.8028 34.2229 58.2141C34.2229 59.6253 33.1644 60.6838 31.7532 60.6838C30.342 60.6838 29.2835 59.6253 29.2835 58.2141Z" fill="white"/>
<path d="M0 58.2139C0 74.9725 13.7596 88.7321 30.5182 88.7321C43.925 88.7321 55.3914 79.9118 59.4487 67.9162L76.3837 69.1511C76.9129 69.1511 77.2657 69.3275 77.795 69.3275C83.7927 69.3275 88.7321 64.5645 88.9085 58.3903C89.9669 57.5083 90.849 56.4499 91.731 55.215C95.4355 50.2757 97.1996 45.8655 98.6108 41.9846C100.022 37.9272 101.433 34.3991 104.609 31.2238C106.02 29.8126 108.313 28.0485 111.136 26.6373C111.665 28.5777 112.194 30.5182 112.9 32.4587C104.609 37.9272 98.9636 47.2767 98.9636 58.0375C98.9636 74.796 112.723 88.5557 129.482 88.5557C146.24 88.5557 160 74.796 160 58.0375C160 41.2789 146.24 27.5193 129.482 27.5193C124.719 27.5193 120.132 28.7541 116.075 30.6946C113.605 22.9327 112.37 14.8181 112.37 6.35059C112.37 5.46856 111.841 4.93935 111.136 4.58653C110.43 2.46966 108.49 0.882029 106.02 0.882029H104.609C104.256 0.352812 103.727 0 103.021 0H95.4355C94.3771 0 93.6715 0.882029 93.6715 1.76406C93.6715 2.64609 94.5535 3.52812 95.4355 3.52812H103.021C103.727 3.52812 104.256 3.1753 104.609 2.64609H106.02C107.431 2.64609 108.842 3.52811 109.372 4.76295C109.019 5.11576 108.666 5.64498 108.666 6.1742C108.666 6.87983 108.666 7.76186 108.666 8.46748C107.96 9.17311 107.078 9.70232 106.02 9.70232H104.609C104.256 9.1731 103.727 8.82029 103.021 8.82029H95.4355C94.3771 8.82029 93.6715 9.70232 93.6715 10.5843C93.6715 11.6428 94.5535 12.3484 95.4355 12.3484H103.021C103.727 12.3484 104.256 11.9956 104.609 11.4664H106.02C107.078 11.4664 107.96 11.1136 108.842 10.5843C109.019 12.7012 109.195 14.8181 109.372 16.7585C104.256 18.5226 100.022 21.3451 97.5524 23.8148C93.6714 27.6957 92.2602 31.5766 90.6726 35.8104C89.2613 39.6913 87.85 43.5722 84.3219 47.9824C84.1455 48.1588 84.1456 48.1588 83.9692 48.3352C82.2051 47.1003 80.0882 46.3947 77.6185 46.3947C77.0893 46.3947 76.7365 46.3947 76.2073 46.5711L72.1499 46.9239L57.3319 17.2878C57.3319 17.2878 57.3319 17.2878 57.3319 17.1114C57.3319 16.9349 57.1555 16.935 57.1555 16.7585C57.1555 16.5821 56.979 16.5821 56.979 16.5821C56.979 16.5821 56.979 16.5821 56.8026 16.4057H56.6263C56.4499 16.4057 56.4498 16.2293 56.2734 16.2293C56.097 16.2293 56.097 16.2293 55.9206 16.2293C55.7442 16.2293 55.7442 16.2293 55.5678 16.2293C55.3914 16.2293 55.3914 16.2293 55.215 16.4057H55.0386C55.0386 16.4057 55.0386 16.4057 54.8622 16.4057C54.6858 16.4057 54.6858 16.5821 54.5094 16.5821C54.333 16.5821 54.333 16.7585 54.333 16.7585C54.333 16.7585 54.333 16.7585 54.333 16.9349L51.3341 21.6979H19.5811C18.5226 21.6979 17.817 22.5799 17.817 23.462C17.817 24.5204 18.699 25.226 19.5811 25.226H49.0408L45.5127 30.871C41.1025 28.4013 35.9868 26.9901 30.6946 26.9901C13.7596 27.6957 0 41.4554 0 58.2139ZM118.015 45.3363C120.662 50.2756 123.66 55.215 127.365 59.6252C127.718 60.1544 128.247 60.3308 128.776 60.3308C129.129 60.3308 129.658 60.1544 130.011 59.978C130.717 59.2723 130.893 58.2139 130.364 57.3319C127.012 53.0981 124.013 48.5116 121.367 43.7486C120.309 41.8082 119.427 39.8677 118.721 37.7508C121.896 35.9868 125.601 35.1047 129.658 35.1047C142.536 35.1047 152.944 45.5127 152.944 58.3903C152.944 71.2679 142.536 81.6759 129.658 81.6759C116.781 81.6759 106.373 71.2679 106.373 58.3903C106.373 50.8048 110.077 44.1014 115.546 39.8677C116.251 41.6317 117.133 43.5722 118.015 45.3363ZM114.134 36.3396C114.311 36.8688 114.664 37.398 114.84 37.9272C108.666 42.5138 104.432 49.9228 104.432 58.2139C104.432 71.9736 115.722 83.2635 129.482 83.2635C143.241 83.2635 154.531 71.9736 154.531 58.2139C154.531 44.4543 143.241 33.1643 129.482 33.1643C125.248 33.1643 121.367 34.2227 117.839 35.9868C117.663 35.4576 117.486 34.9283 117.133 34.3991C120.838 32.4587 124.895 31.4002 129.305 31.4002C144.123 31.4002 156.119 43.3958 156.119 58.2139C156.119 73.032 144.123 85.0276 129.305 85.0276C114.487 85.0276 102.492 73.032 102.492 58.2139C102.668 49.2172 107.255 41.2789 114.134 36.3396ZM86.7916 51.6869C86.968 51.5105 87.1444 51.1577 87.3209 50.9813C91.0254 46.0419 92.7894 41.6318 94.2007 37.7508C95.6119 33.6935 97.0232 30.1654 100.198 26.9901C100.904 26.2845 104.432 22.9327 109.901 20.9923C110.077 21.6979 110.077 22.4035 110.254 23.1091C105.667 25.226 102.668 27.8721 101.963 28.7541C98.0816 32.6351 96.6703 36.516 95.0827 40.7497C93.6714 44.6306 92.2602 48.5116 88.7321 52.9217C88.5557 53.2745 88.2029 53.451 88.0265 53.8038C87.6737 53.2745 87.3208 52.3925 86.7916 51.6869ZM51.8633 49.2172L37.7508 50.2756L44.4542 39.8677C47.8059 42.161 50.2756 45.5127 51.8633 49.2172ZM39.3385 58.2139C39.3385 55.9206 38.28 53.8038 36.516 52.3925L37.0452 51.6869L52.5689 50.452C53.4509 52.9217 53.9802 55.5678 53.9802 58.2139C53.9802 60.86 53.4509 63.5061 52.5689 65.9757L35.8103 64.7409C37.7508 63.5061 39.3385 61.0364 39.3385 58.2139ZM51.8633 67.387C48.3352 75.6781 40.0441 81.4995 30.5182 81.4995C17.6406 81.4995 7.23265 71.0915 7.23265 58.2139C7.23265 45.3363 17.6406 34.9283 30.5182 34.9283C34.3991 34.9283 38.28 35.9868 41.4554 37.7508L33.1643 50.6285L31.5766 50.8049C27.5193 50.8049 23.9912 54.1566 23.9912 58.3903C23.9912 62.624 27.3429 65.9757 31.5766 65.9757L51.8633 67.387ZM31.753 62.0948C29.6362 62.0948 28.0485 60.3308 28.0485 58.3903C28.0485 56.2734 29.8126 54.6858 31.753 54.6858C33.8699 54.6858 35.4576 56.4498 35.4576 58.3903C35.4576 60.3308 33.8699 62.0948 31.753 62.0948ZM46.3947 36.6924C50.452 39.6913 53.6273 43.925 55.5678 48.8644L53.8038 49.0408C52.0397 44.8071 49.2172 40.9261 45.5127 38.28L46.3947 36.6924ZM71.0915 58.2139C71.0915 54.5094 74.0904 51.3341 77.9713 51.3341C81.6758 51.3341 84.8512 54.333 84.8512 58.2139C84.8512 61.9184 81.8522 65.0937 77.9713 65.0937C74.0904 65.0937 71.0915 62.0948 71.0915 58.2139ZM61.0364 58.2139C61.0364 55.3914 60.6836 52.5689 59.8015 49.9228L68.9747 49.2172L69.6803 50.6285C67.7398 52.5689 66.6814 55.215 66.6814 58.2139C66.6814 62.0948 68.6218 65.4465 71.6208 67.5634L59.8015 66.6814C60.5072 64.0353 61.0364 61.2128 61.0364 58.2139ZM59.4487 48.5116C57.3318 42.5138 53.4509 37.2216 48.5116 33.5171L55.7442 22.2271L68.4454 47.6296L59.4487 48.5116ZM56.097 66.3286L54.333 66.1522C55.215 63.6825 55.5678 61.0364 55.5678 58.2139C55.5678 55.3914 55.0386 52.7453 54.333 50.2756L56.097 50.0992C56.979 52.5689 57.3319 55.3914 57.3319 58.2139C57.3319 61.0364 56.979 63.8589 56.097 66.3286ZM3.70453 58.2139C3.70453 43.3958 15.7001 31.4002 30.5182 31.4002C35.1047 31.4002 39.5149 32.6351 43.3958 34.7519L42.5138 36.1632C38.9857 34.2227 34.9283 33.1643 30.5182 33.1643C16.7585 33.1643 5.46859 44.4543 5.46859 58.2139C5.46859 71.9736 16.7585 83.2635 30.5182 83.2635C41.1025 83.2635 50.0992 76.7365 53.8038 67.387L55.5678 67.5634C51.6869 77.795 41.9846 85.0276 30.5182 85.0276C15.7001 85.204 3.70453 73.032 3.70453 58.2139Z" fill="white"/>
<path d="M68.7981 8.99687L50.6283 16.0531C49.9226 16.2295 49.3935 16.4059 48.6878 16.4059C47.6294 16.4059 46.5709 16.0531 45.5125 15.5239C44.1013 14.4655 43.0428 12.8778 43.0428 10.9373C43.0428 7.93844 45.5125 5.46875 48.5114 5.46875H68.0925C68.9745 5.46875 69.6801 6.17439 69.8565 7.05642C70.0329 7.76204 69.6801 8.64405 68.7981 8.99687Z" fill="white"/>
<path d="M123.307 25.2264L122.954 17.9937H130.187L129.658 25.2264H123.307Z" fill="white"/>
<path d="M115.192 9.52574H121.014L121.367 16.582H116.251L115.192 9.52574Z" fill="white"/>
<path d="M122.778 16.582L122.425 9.52574H130.716L130.187 16.582H122.778Z" fill="white"/>
<path d="M135.656 25.2264H131.069L131.598 17.9937H136.714L135.656 25.2264Z" fill="white"/>
<path d="M116.428 17.9937H121.543L121.896 25.2264H117.486L116.428 17.9937Z" fill="white"/>
<path d="M131.599 16.582L132.128 9.52574H137.773L136.891 16.582H131.599Z" fill="white"/>
<path d="M34.2234 125.954C34.2234 127.718 33.165 128.777 31.2245 128.777H29.4604V131.07H28.0492V123.308H31.2245C33.165 123.308 34.2234 124.367 34.2234 125.954ZM32.9885 126.131C32.9885 125.072 32.283 124.543 31.0481 124.543H29.2841V127.542H31.0481C32.283 127.542 32.9885 127.189 32.9885 126.131Z" fill="white"/>
<path d="M40.3972 131.07L38.986 128.777C38.8095 128.777 38.8095 128.777 38.6331 128.777H36.8691V131.07H35.6342V123.309H38.8095C40.75 123.309 41.9848 124.191 41.9848 125.955C41.9848 127.189 41.4556 128.072 40.3972 128.424L42.1612 131.07H40.3972ZM38.6331 127.542C39.868 127.542 40.5736 127.013 40.5736 125.955C40.5736 124.896 39.868 124.367 38.6331 124.367H36.8691V127.366H38.6331V127.542Z" fill="white"/>
<path d="M49.041 123.309V124.543H44.8073V126.66H48.5119V127.895H44.8073V130.012H49.2175V131.247H43.5725V123.485H49.041V123.309Z" fill="white"/>
<path d="M52.3929 123.309L54.8626 128.424L57.3323 123.309H58.9199V131.07H57.6851V125.249L55.2154 130.188H54.5098L52.0401 125.249V131.07H50.8053V123.309H52.3929Z" fill="white"/>
<path d="M62.2721 123.309V131.07H61.0373V123.309H62.2721Z" fill="white"/>
<path d="M67.564 130.012C68.7988 130.012 69.6809 129.306 69.6809 127.895V123.309H70.9157V127.895C70.9157 129.836 69.6808 131.07 67.564 131.07C65.4471 131.07 64.2123 129.836 64.2123 127.895V123.309H65.4471V127.895C65.4471 129.306 66.3291 130.012 67.564 130.012Z" fill="white"/>
<path d="M74.2678 123.309L76.7374 128.424L79.2071 123.309H80.7947V131.07H79.5599V125.249L77.0902 130.188H76.2082L73.7385 125.249V131.07H72.5037V123.309H74.2678Z" fill="white"/>
<path d="M93.8483 131.953C93.319 132.482 92.437 132.835 91.7314 132.835C90.673 132.835 89.9674 132.305 89.2618 131.247C86.9685 131.247 85.2044 129.483 85.2044 127.366C85.2044 125.073 86.9685 123.485 89.2618 123.485C91.555 123.485 93.3191 125.249 93.3191 127.366C93.3191 129.13 92.2606 130.541 90.4966 131.071C90.8494 131.6 91.3786 131.776 91.7314 131.776C92.0842 131.776 92.6134 131.6 93.1427 131.071L93.8483 131.953ZM89.2618 130.012C90.8494 130.012 92.0842 128.777 92.0842 127.19C92.0842 125.602 90.8494 124.544 89.2618 124.544C87.6741 124.544 86.4393 125.778 86.4393 127.19C86.6157 128.777 87.8505 130.012 89.2618 130.012Z" fill="white"/>
<path d="M98.0819 130.012C99.3167 130.012 100.199 129.306 100.199 127.895V123.309H101.434V127.895C101.434 129.836 100.199 131.07 98.0819 131.07C95.965 131.07 94.7301 129.836 94.7301 127.895V123.309H95.965V127.895C95.965 129.306 96.847 130.012 98.0819 130.012Z" fill="white"/>
<path d="M108.137 129.306H104.256L103.551 131.07H102.14L105.491 123.309H106.902L110.254 131.07H108.843L108.137 129.306ZM107.608 128.248L106.197 124.72L104.786 128.248H107.608Z" fill="white"/>
<path d="M112.548 123.309V129.836H115.899V131.07H111.313V123.309H112.548Z" fill="white"/>
<path d="M118.545 123.309V131.07H117.311V123.309H118.545Z" fill="white"/>
<path d="M125.778 123.309V124.543H123.308V131.07H122.073V124.543H119.604V123.309H125.778Z" fill="white"/>
<path d="M130.012 128.601V131.247H128.777V128.777L125.954 123.485H127.189L129.482 127.19L131.599 123.485H133.011L130.012 128.601Z" fill="white"/>
<path d="M8.82026 110.254H10.0551V100.552H8.82026V97.7294H17.1113C20.8158 97.7294 22.5799 99.1407 22.5799 101.434C22.5799 103.374 22.0507 104.256 20.4631 104.786C22.0507 105.315 23.4619 106.373 23.4619 108.49C23.4619 111.665 21.6979 112.9 17.4641 112.9H8.99668V110.254H8.82026ZM14.6416 103.904H16.0529C17.2878 103.904 17.6406 103.198 17.6406 102.14C17.6406 101.081 16.9349 100.552 16.2293 100.552H14.818V103.904H14.6416ZM16.4057 110.254C17.2877 110.254 18.1697 109.549 18.1697 108.314C18.1697 107.255 17.4641 106.373 16.2293 106.373H14.4652V110.254H16.4057Z" fill="white"/>
<path d="M31.7527 97.7294V100.728H30.3414V110.254H31.7527V113.253H24.3436V110.254H25.7549V100.728H24.3436V97.7294H31.7527Z" fill="white"/>
<path d="M39.1619 100.552V104.08L43.2192 100.552H41.6316V97.7294H49.0406V100.552H47.8058L44.6305 103.374L49.0406 110.254H50.2755V113.077H41.6316V110.254H43.2192L40.7496 106.55L39.1619 107.961V110.254H40.3967V113.077H33.3405V110.254H34.5754V100.552H33.3405V97.7294H40.2203V100.552H39.1619Z" fill="white"/>
<path d="M64.9177 102.669H61.0368V100.729H57.5086V103.728H61.7424V106.727H57.5086V110.255H61.0368V108.138H64.9177V113.077H51.5108V110.078H52.9221V100.553H51.5108V97.5537H64.9177V102.669Z" fill="white"/>
<path d="M72.5029 107.609H76.5602C76.5602 109.549 78.5007 109.726 79.3827 109.902C80.0884 109.902 81.3232 109.726 81.3232 108.843C81.3232 107.079 72.8557 107.785 72.8557 102.14C72.8557 98.7884 76.031 97.3771 78.1479 97.3771C80.0883 97.3771 81.8524 97.9063 82.7344 99.6704L82.9109 97.7299H86.7917V103.199H82.7344C82.7344 101.611 81.4996 100.552 79.9119 100.552C79.2063 100.552 78.3243 100.905 78.3243 101.787C78.3243 104.081 87.1446 103.551 87.1446 108.667C87.1446 112.195 83.9693 113.43 81.3232 113.43C79.0299 113.43 77.6187 112.372 76.7366 111.313L76.5602 113.077H72.6793V107.609H72.5029Z" fill="white"/>
<path d="M102.844 103.551H99.6691V100.728H97.7286V110.254H99.4927V113.253H91.2016V110.254H92.9656V100.728H91.0252V103.551H88.0263V97.7294H102.844V103.551Z" fill="white"/>
<path d="M103.903 105.315C103.903 100.552 107.078 97.2005 111.665 97.2005C117.133 97.2005 119.603 100.376 119.603 105.492C119.603 110.431 116.78 113.606 111.841 113.606C107.255 113.606 103.903 110.96 103.903 105.315ZM114.134 105.492C114.134 102.846 113.429 100.729 111.665 100.729C110.253 100.729 109.371 102.669 109.371 105.315C109.371 108.138 110.43 110.078 111.841 110.078C113.252 110.078 114.134 108.314 114.134 105.492Z" fill="white"/>
<path d="M127.894 97.7294C133.01 97.7294 134.068 99.8463 134.068 102.316C134.068 104.08 132.657 105.315 130.893 105.491C132.481 105.668 133.716 107.079 133.716 108.667C133.716 109.549 133.892 110.254 134.245 110.254C134.598 110.254 134.774 109.901 134.774 109.549V108.843H136.185V110.078C136.185 111.842 135.48 113.606 133.01 113.606C130.187 113.606 128.776 112.018 128.776 109.549C128.776 107.608 128.6 107.079 126.483 107.079V110.431H127.894V113.43H120.838V110.431H122.073V100.728H120.838V97.9058H127.894V97.7294ZM126.483 104.433H127.541C128.776 104.433 129.658 103.727 129.658 102.669C129.658 101.434 128.953 100.728 127.718 100.728H126.659V104.433H126.483Z" fill="white"/>
<path d="M150.827 102.669H146.946V100.729H143.418V103.728H147.651V106.727H143.418V110.255H146.946V108.138H150.827V113.077H137.42V110.078H138.831V100.553H137.42V97.5537H150.827V102.669Z" fill="white"/>
</svg>
