<svg width="160" height="126" viewBox="0 0 160 126" fill="none" xmlns="http://www.w3.org/2000/svg">
<path d="M79.9998 122.185L25.0418 93.1091V55.2939H134.79V93.1091L79.9998 122.185ZM28.4032 91.0923L79.9998 118.487L131.596 91.0923V58.6553H28.5713V91.0923H28.4032Z" fill="white"/>
<path d="M79.9997 114.79L31.5963 89.076V61.681H128.403V89.076L79.9997 114.79ZM32.7728 88.4037L79.8316 113.446L126.89 88.4037V63.0255H32.7728V88.4037Z" fill="white"/>
<path d="M58.6554 110.588H0L14.1176 89.7477L0 68.7393H26.7227V72.1007H6.38653L18.3193 89.7477L6.38653 107.227H58.6554V110.588Z" fill="white"/>
<path d="M25.3783 93.2773L33.7817 108.908H58.6556L25.3783 93.2773Z" fill="white"/>
<path d="M160 110.588H101.344V107.227H153.613L141.68 89.7477L153.613 72.1007H133.277V68.7393H160L145.714 89.7477L160 110.588Z" fill="white"/>
<path d="M134.622 93.2773L126.218 108.908H101.344L134.622 93.2773Z" fill="white"/>
<path d="M80 2.01681C79.4958 2.01681 79.1597 1.68067 79.1597 1.17647V0.840336C79.1597 0.336134 79.4958 0 80 0C80.5042 0 80.8403 0.336134 80.8403 0.840336V1.34454C80.8403 1.68067 80.5042 2.01681 80 2.01681Z" fill="white"/>
<path d="M80 17.4787C79.4958 17.4787 79.1597 17.1425 79.1597 16.6383V3.86522C79.1597 3.36102 79.4958 3.02488 80 3.02488C80.5042 3.02488 80.8403 3.36102 80.8403 3.86522V16.6383C80.8403 17.1425 80.5042 17.4787 80 17.4787Z" fill="white"/>
<path d="M74.9578 15.1257C74.6217 15.1257 74.1175 14.7896 74.1175 14.4535L73.1091 6.55429C73.1091 6.05009 73.4452 5.71396 73.7813 5.54589C74.2856 5.54589 74.6217 5.88202 74.7898 6.21816L75.7982 13.9492C75.7982 14.6215 75.462 14.9577 74.9578 15.1257Z" fill="white"/>
<path d="M67.8987 8.06745C67.5626 8.06745 67.2264 7.73132 67.0584 7.39518L65.8819 2.6893C65.7139 2.1851 66.05 1.84896 66.5542 1.6809C67.0584 1.51283 67.3945 1.84896 67.5626 2.35317L68.7391 7.22711C68.9071 7.73132 68.571 8.06745 68.0668 8.23552C68.0668 8.06745 68.0668 8.06745 67.8987 8.06745Z" fill="white"/>
<path d="M68.7393 11.4288C68.4031 11.4288 68.067 11.0927 67.8989 10.7565L67.7308 10.2523C67.5628 9.74812 67.8989 9.41199 68.4031 9.24392C68.9073 9.07585 69.2434 9.41199 69.4115 9.91619L69.5796 10.4204C69.7477 10.9246 69.4115 11.2607 68.9073 11.4288C68.9073 11.4288 68.9073 11.4288 68.7393 11.4288Z" fill="white"/>
<path d="M69.9155 16.3024C69.5794 16.3024 69.2433 15.9663 69.0752 15.6301L68.4029 13.2772C68.2349 12.773 68.571 12.4369 69.0752 12.2688C69.5794 12.1007 69.9156 12.4369 70.0836 12.9411L70.7559 15.294C70.9239 15.7982 70.5878 16.1343 70.0836 16.3024C70.0836 16.3024 70.0836 16.3024 69.9155 16.3024Z" fill="white"/>
<path d="M63.6972 13.9496C63.361 13.9496 63.0249 13.7815 62.8568 13.4454L61.3442 9.57983C61.1762 9.07563 61.3442 8.73949 61.8484 8.57143C62.3526 8.40336 62.6888 8.57143 62.8568 9.07563L64.3694 12.9412C64.5375 13.4454 64.3694 13.7815 63.8652 13.9496H63.6972Z" fill="white"/>
<path d="M56.9746 13.2774C56.6385 13.2774 56.3023 13.1094 56.3023 12.7732L53.4452 7.73121C53.2771 7.39508 53.4452 6.89087 53.7813 6.55474C54.1175 6.38667 54.6217 6.55474 54.9578 6.89087L57.8149 12.101C57.983 12.4371 57.815 12.9413 57.4788 13.2774C57.3108 13.2774 57.1427 13.2774 56.9746 13.2774Z" fill="white"/>
<path d="M61.008 20.6721C60.6719 20.6721 60.3358 20.504 60.3358 20.1679L57.4786 14.9578C57.3106 14.6216 57.4786 14.1174 57.8147 13.7813C58.1509 13.6132 58.6551 13.7813 58.9912 14.1174L61.8483 19.3275C62.0164 19.6637 61.8484 20.1679 61.5122 20.504C61.1761 20.6721 61.1761 20.6721 61.008 20.6721Z" fill="white"/>
<path d="M57.4789 24.3696C57.1428 24.3696 56.9747 24.2016 56.8066 24.0335L49.4117 13.4453C49.0755 13.1091 49.2436 12.6049 49.5798 12.2688C49.9159 11.9327 50.4201 12.1007 50.7562 12.4369L58.1512 23.0251C58.4873 23.3612 58.3192 23.8654 57.9831 24.2016C57.815 24.2016 57.647 24.3696 57.4789 24.3696Z" fill="white"/>
<path d="M47.7309 20.6724C47.5629 20.6724 47.2268 20.5044 47.0587 20.3363L42.6889 15.4623C42.3528 15.1262 42.3528 14.622 42.6889 14.2859C43.0251 13.9497 43.5293 13.9497 43.8654 14.2859L48.2352 19.1598C48.5713 19.496 48.5713 20.0002 48.2352 20.3363C48.0671 20.6724 47.899 20.6724 47.7309 20.6724Z" fill="white"/>
<path d="M50.42 23.5294C50.252 23.5294 49.9158 23.3613 49.7478 23.1933L49.4116 22.8571C49.0755 22.521 49.0755 22.0168 49.4116 21.6807C49.7478 21.3445 50.252 21.3445 50.5881 21.6807L50.9242 22.0168C51.2603 22.3529 51.2603 22.8571 50.9242 23.1933C50.7561 23.5294 50.5881 23.5294 50.42 23.5294Z" fill="white"/>
<path d="M39.3273 21.1767C39.1593 21.1767 38.9912 21.1767 38.8232 21.0087L38.1509 20.5045C37.8148 20.1683 37.8148 19.6641 37.9828 19.328C38.319 18.9919 38.8231 18.9919 39.1593 19.1599L39.8316 19.6641C40.1677 20.0003 40.1677 20.5045 39.9996 20.8406C39.6635 21.1767 39.4954 21.1767 39.3273 21.1767Z" fill="white"/>
<path d="M48.9074 29.5801C48.7393 29.5801 48.5712 29.5801 48.4031 29.412L40.8401 23.0255C40.504 22.6893 40.504 22.1851 40.6721 21.849C41.0082 21.5129 41.5124 21.5129 41.8485 21.6809L49.4115 28.0675C49.7477 28.4036 49.7477 28.9078 49.5796 29.244C49.4115 29.412 49.2435 29.5801 48.9074 29.5801Z" fill="white"/>
<path d="M37.4785 27.8995C37.3105 27.8995 37.1424 27.8995 36.9744 27.7315L34.1172 25.8827C33.7811 25.5466 33.613 25.0424 33.9492 24.7063C34.2853 24.3701 34.7895 24.2021 35.1256 24.5382L37.9828 26.3869C38.3189 26.7231 38.487 27.2273 38.1509 27.5634C37.9828 27.7315 37.8147 27.8995 37.4785 27.8995Z" fill="white"/>
<path d="M45.0418 32.9416C44.8737 32.9416 44.7056 32.9416 44.5376 32.7735L39.3275 29.2441C38.9913 28.9079 38.8233 28.4037 39.1594 28.0676C39.4955 27.7315 39.9998 27.5634 40.3359 27.8995L45.546 31.429C45.8821 31.7651 46.0502 32.2693 45.7141 32.6054C45.546 32.7735 45.2098 32.9416 45.0418 32.9416Z" fill="white"/>
<path d="M43.1931 37.8151C43.0251 37.8151 42.857 37.8151 42.857 37.647L35.2939 33.9495C34.9578 33.7815 34.7897 33.2773 34.9578 32.7731C35.1259 32.4369 35.6301 32.2689 36.1343 32.4369L43.6973 36.1344C44.0334 36.3025 44.2015 36.8067 44.0335 37.3109C43.8654 37.647 43.5293 37.8151 43.1931 37.8151Z" fill="white"/>
<path d="M33.9493 39.8321C33.7812 39.8321 33.7812 39.8321 33.6131 39.8321L28.235 37.9834C27.7308 37.8153 27.5627 37.3111 27.7308 36.9749C27.8989 36.4707 28.4031 36.3027 28.7392 36.4707L34.1173 38.3195C34.6215 38.4876 34.7896 38.9918 34.6216 39.3279C34.6216 39.664 34.2854 39.8321 33.9493 39.8321Z" fill="white"/>
<path d="M43.3612 43.1931C43.1931 43.1931 43.1931 43.1931 43.0251 43.1931L36.8066 41.0082C36.3024 40.8402 36.1343 40.336 36.3024 39.9998C36.4704 39.4956 36.9747 39.3276 37.3108 39.4956L43.5292 41.6805C44.0334 41.8486 44.2015 42.3528 44.0335 42.6889C44.0335 43.025 43.6973 43.1931 43.3612 43.1931Z" fill="white"/>
<path d="M27.7308 44.7059H27.5627L26.5543 44.5378C26.0501 44.3697 25.882 44.0336 25.882 43.5294C26.0501 43.0252 26.3863 42.8571 26.8905 42.8571L27.8989 43.0252C28.4031 43.1933 28.5711 43.5294 28.5711 44.0336C28.4031 44.3697 28.0669 44.7059 27.7308 44.7059Z" fill="white"/>
<path d="M45.2101 48.4034H45.042L31.0924 45.3781C30.5882 45.2101 30.4202 44.8739 30.4202 44.3697C30.5883 43.8655 30.9244 43.6975 31.4286 43.6975L45.3782 46.7227C45.8824 46.8908 46.0504 47.2269 46.0504 47.7311C45.8824 48.2353 45.5462 48.4034 45.2101 48.4034Z" fill="white"/>
<path d="M35.9664 52.101L27.8992 51.4287C27.395 51.4287 27.0588 50.9245 27.0588 50.5884C27.0588 50.0842 27.563 49.7481 27.8992 49.7481L35.9664 50.4203C36.4706 50.4203 36.8067 50.9245 36.8067 51.2607C36.8067 51.7649 36.4706 52.101 35.9664 52.101Z" fill="white"/>
<path d="M85.2094 13.2777C84.7052 13.2777 84.3691 12.7735 84.3691 12.2693L85.5455 3.36173C85.5455 2.85753 86.0498 2.5214 86.554 2.68946C87.0582 2.68946 87.3943 3.19367 87.2262 3.69787L86.0498 12.6054C86.0498 12.9416 85.7136 13.2777 85.2094 13.2777Z" fill="white"/>
<path d="M92.605 6.21832H92.437C91.9328 6.05026 91.7647 5.71412 91.7647 5.20992L92.437 2.18471C92.605 1.68051 92.9412 1.51244 93.4454 1.51244C93.9496 1.68051 94.1176 2.01664 94.1176 2.52084L93.2773 5.54605C93.2773 5.88219 92.9412 6.21832 92.605 6.21832Z" fill="white"/>
<path d="M90.7561 13.1094H90.5881C90.0839 12.9413 89.9158 12.6052 89.9158 12.101L91.0923 7.56319C91.2604 7.05899 91.5965 6.89092 92.1007 6.89092C92.6049 7.05899 92.773 7.39512 92.773 7.89932L91.5965 12.4371C91.4284 12.9413 91.0923 13.1094 90.7561 13.1094Z" fill="white"/>
<path d="M99.3276 6.21849C99.1595 6.21849 99.1595 6.21849 98.9914 6.21849C98.4872 6.05042 98.3192 5.54622 98.4872 5.21008L98.6553 4.87395C98.8234 4.36975 99.3275 4.20168 99.6637 4.36975C100.168 4.53781 100.336 5.04202 100.168 5.37815L99.9998 5.71429C99.9998 6.05042 99.6637 6.21849 99.3276 6.21849Z" fill="white"/>
<path d="M95.9662 14.958C95.7982 14.958 95.7981 14.958 95.6301 14.958C95.1259 14.7899 94.9578 14.2857 95.1259 13.9496L97.6469 7.39496C97.815 6.89076 98.3192 6.72269 98.6553 6.89076C99.1595 7.05882 99.3276 7.56302 99.1595 7.89916L96.6385 14.4538C96.6385 14.7899 96.3024 14.958 95.9662 14.958Z" fill="white"/>
<path d="M100.336 18.3191C100.168 18.3191 99.9998 18.3191 99.9998 18.151C99.6637 17.983 99.4956 17.4788 99.6637 16.9746L104.37 8.23508C104.538 7.89895 105.042 7.73088 105.546 7.89895C105.882 8.06702 106.05 8.57122 105.882 9.07542L101.176 17.8149C100.84 18.151 100.672 18.3191 100.336 18.3191Z" fill="white"/>
<path d="M109.076 14.9584C108.908 14.9584 108.74 14.9584 108.572 14.7903C108.235 14.4542 108.067 13.95 108.403 13.6138L110.756 10.4206C111.092 10.0844 111.597 9.91635 111.933 10.2525C112.269 10.5886 112.437 11.0928 112.101 11.429L109.748 14.6222C109.748 14.7903 109.412 14.9584 109.076 14.9584Z" fill="white"/>
<path d="M101.513 25.714C101.345 25.714 101.177 25.714 101.008 25.5459C100.672 25.2098 100.504 24.7056 100.84 24.3695L107.059 15.63C107.395 15.2938 107.899 15.1258 108.235 15.4619C108.571 15.798 108.74 16.3022 108.403 16.6384L102.185 25.3779C102.017 25.5459 101.849 25.714 101.513 25.714Z" fill="white"/>
<path d="M116.471 16.1348C116.303 16.1348 116.134 16.1348 115.966 15.9667C115.63 15.6306 115.63 15.1264 115.966 14.7902L116.134 14.4541C116.471 14.118 116.975 14.118 117.311 14.4541C117.647 14.7902 117.647 15.2944 117.311 15.6306L117.143 15.9667C116.975 15.9667 116.639 16.1348 116.471 16.1348Z" fill="white"/>
<path d="M106.387 27.0591C106.218 27.0591 106.05 27.0591 105.882 26.8911C105.546 26.5549 105.546 26.0507 105.882 25.7146L113.782 16.9751C114.118 16.639 114.622 16.639 114.958 16.9751C115.294 17.3112 115.294 17.8155 114.958 18.1516L107.059 26.8911C106.891 27.0591 106.555 27.0591 106.387 27.0591Z" fill="white"/>
<path d="M116.975 24.37C116.806 24.37 116.47 24.2019 116.302 24.0338C115.966 23.6977 115.966 23.1935 116.47 22.8574L120.84 19.1599C121.176 18.8237 121.68 18.8237 122.017 19.3279C122.353 19.6641 122.353 20.1683 121.848 20.5044L117.479 24.2019C117.479 24.2019 117.311 24.37 116.975 24.37Z" fill="white"/>
<path d="M110.756 29.58C110.588 29.58 110.252 29.412 110.083 29.2439C109.747 28.9078 109.747 28.4036 110.252 28.0674L114.789 24.2019C115.125 23.8658 115.63 23.8658 115.966 24.37C116.302 24.7061 116.302 25.2103 115.798 25.5464L111.26 29.412C111.26 29.58 111.092 29.58 110.756 29.58Z" fill="white"/>
<path d="M116.134 32.2693C115.798 32.2693 115.63 32.1012 115.462 31.9332C115.126 31.597 115.294 31.0928 115.63 30.7567L125.042 24.5382C125.378 24.2021 125.882 24.3701 126.218 24.7063C126.554 25.0424 126.386 25.5466 126.05 25.8827L116.638 32.1012C116.302 32.1012 116.302 32.2693 116.134 32.2693Z" fill="white"/>
<path d="M113.109 34.1175C112.773 34.1175 112.605 33.9495 112.437 33.7814C112.101 33.4453 112.269 32.9411 112.605 32.6049L112.941 32.4369C113.277 32.1007 113.781 32.2688 114.118 32.6049C114.454 32.9411 114.286 33.4453 113.949 33.7814L113.613 33.9495C113.445 34.1175 113.277 34.1175 113.109 34.1175Z" fill="white"/>
<path d="M115.966 38.1514C115.63 38.1514 115.294 37.9833 115.294 37.6472C115.126 37.311 115.294 36.8068 115.63 36.4707L125.21 31.7648C125.546 31.5968 126.05 31.7648 126.386 32.101C126.554 32.4371 126.386 32.9413 126.05 33.2774L116.47 37.9833C116.302 38.1514 116.134 38.1514 115.966 38.1514Z" fill="white"/>
<path d="M126.554 39.664C126.218 39.664 125.882 39.496 125.714 39.1598C125.546 38.6556 125.714 38.3195 126.218 38.1514L131.092 36.4707C131.596 36.3027 131.932 36.4707 132.1 36.9749C132.268 37.4791 132.1 37.8153 131.596 37.9834L126.722 39.664H126.554Z" fill="white"/>
<path d="M117.143 43.0255C116.807 43.0255 116.471 42.8575 116.303 42.5213C116.134 42.0171 116.303 41.681 116.807 41.5129L123.697 39.16C124.202 38.9919 124.538 39.16 124.706 39.6642C124.874 40.1684 124.706 40.5045 124.202 40.6726L117.311 43.0255C117.311 43.0255 117.311 43.0255 117.143 43.0255Z" fill="white"/>
<path d="M132.773 44.538C132.437 44.538 132.101 44.2019 131.933 43.8658C131.765 43.3616 132.101 43.0254 132.605 42.8574H132.941C133.445 42.6893 133.782 43.0254 133.95 43.5296C134.118 44.0338 133.782 44.37 133.277 44.538H132.941C132.941 44.538 132.941 44.538 132.773 44.538Z" fill="white"/>
<path d="M114.118 48.5715C113.781 48.5715 113.445 48.2354 113.277 47.8992C113.109 47.395 113.445 47.0589 113.949 46.8908L129.244 43.5295C129.748 43.3614 130.084 43.6975 130.252 44.2017C130.42 44.7059 130.084 45.0421 129.58 45.2101L114.286 48.5715C114.286 48.5715 114.286 48.5715 114.118 48.5715Z" fill="white"/>
<path d="M121.849 52.2691C121.344 52.2691 121.008 51.9329 121.008 51.4287C121.008 50.9245 121.344 50.5884 121.849 50.5884L131.428 49.7481C131.933 49.7481 132.269 50.0842 132.269 50.5884C132.269 51.0926 131.933 51.4287 131.428 51.4287L121.849 52.2691Z" fill="white"/>
<path d="M78.8237 38.6556C80.0001 38.6556 81.0086 39.664 81.0086 40.8405C81.0086 42.0169 80.0001 43.0253 78.8237 43.0253C77.6472 43.0253 76.6388 42.0169 76.6388 40.8405C76.8069 39.664 77.8153 38.6556 78.8237 38.6556Z" fill="white"/>
<path d="M48.9077 40.8407C48.9077 47.3953 54.2859 52.7734 60.8405 52.7734C66.0506 52.7734 70.5884 49.4121 72.101 44.7062L78.3195 45.2104C78.4875 45.2104 78.6556 45.2104 78.8237 45.2104C81.1766 45.2104 83.1934 43.1936 83.1934 40.8407C83.1934 39.6642 82.6892 38.4877 81.8489 37.6474L91.5968 26.8911C91.7648 28.2356 92.101 29.5802 92.6052 30.7566C89.4119 32.9415 87.227 36.639 87.227 40.6726C87.227 47.2272 92.6052 52.6054 99.1598 52.6054C105.714 52.6054 111.093 47.2272 111.093 40.6726C111.093 34.118 105.714 28.7398 99.1598 28.7398C97.3111 28.7398 95.4623 29.244 93.9497 29.9163C93.4455 28.5718 93.2774 27.0591 92.9413 25.7146C93.2774 25.8827 93.6136 25.8827 93.9497 25.8827H95.4623C95.7984 25.8827 96.1346 25.5465 96.1346 25.2104V21.681C96.1346 21.3449 95.7984 21.0087 95.4623 21.0087H93.9497C93.4455 21.0087 92.9413 21.1768 92.6052 21.3449C92.6052 21.0087 92.6052 20.6726 92.6052 20.5045C92.6052 20.1684 92.4371 20.0003 92.101 19.8323C91.7648 18.9919 91.0926 18.3197 90.0842 18.3197H89.4119C89.2439 18.1516 89.0758 17.9835 88.7396 17.9835H85.8825C85.5464 17.9835 85.2103 18.3197 85.2103 18.6558C85.2103 18.9919 85.5464 19.3281 85.8825 19.3281H88.7396C89.0758 19.3281 89.2439 19.16 89.4119 18.9919H90.0842C90.5884 18.9919 91.0926 19.3281 91.4287 19.8323C91.2606 20.0003 91.0926 20.1684 91.0926 20.3365C91.0926 20.6726 91.0926 21.0087 91.0926 21.1768C90.7565 21.5129 90.4203 21.681 90.0842 21.681H89.4119C89.2439 21.5129 89.0758 21.3449 88.7396 21.3449H85.8825C85.5464 21.3449 85.2103 21.681 85.2103 22.0171C85.2103 22.3533 85.5464 22.6894 85.8825 22.6894H88.7396C89.0758 22.6894 89.2439 22.5213 89.4119 22.3533H90.0842C90.4203 22.3533 90.9245 22.1852 91.0926 22.0171C91.0926 22.6894 91.2606 23.5297 91.2606 24.202H70.4203C70.4203 24.202 70.4203 24.202 70.2522 24.202C70.2522 24.202 70.2523 24.202 70.0842 24.202L68.9077 26.0507H57.9833C57.6472 26.0507 57.3111 26.3869 57.3111 26.723C57.3111 27.0591 57.6472 27.3953 57.9833 27.3953H68.0674L66.7229 29.4121C65.0422 28.5718 63.1934 28.0676 61.3447 28.0676C54.2859 28.9079 48.9077 34.118 48.9077 40.8407ZM94.622 35.7986C95.6304 37.8154 96.8069 39.6642 98.3195 41.3449C98.4875 41.5129 98.6556 41.681 98.8237 41.681C98.9917 41.681 99.1598 41.681 99.3279 41.5129C99.664 41.3449 99.664 40.8407 99.496 40.5045C98.1514 38.8239 96.9749 36.9751 95.9665 35.1264C95.6304 34.286 95.2943 33.6138 94.9581 32.7734C96.3027 32.1012 97.6472 31.765 99.1598 31.765C104.202 31.765 108.235 35.7986 108.235 40.8407C108.235 45.8827 104.202 49.9163 99.1598 49.9163C94.1178 49.9163 90.0842 45.8827 90.0842 40.8407C90.0842 37.8154 91.4287 35.2944 93.6136 33.6138C93.9497 34.286 94.2858 34.9583 94.622 35.7986ZM93.1094 32.2692C93.1094 32.4373 93.2775 32.7734 93.4455 32.9415C90.9245 34.7902 89.4119 37.6474 89.4119 40.8407C89.4119 46.2188 93.7817 50.5886 99.1598 50.5886C104.538 50.5886 108.908 46.2188 108.908 40.8407C108.908 35.4625 104.538 31.0928 99.1598 31.0928C97.4791 31.0928 95.9665 31.4289 94.622 32.2692C94.622 32.1012 94.4539 31.765 94.4539 31.597C95.9666 30.9247 97.4791 30.4205 99.1598 30.4205C104.874 30.4205 109.58 35.1264 109.58 40.8407C109.58 46.5549 104.874 51.2608 99.1598 51.2608C93.4455 51.2608 88.7396 46.5549 88.7396 40.8407C88.5715 37.1432 90.4203 34.118 93.1094 32.2692ZM69.2439 37.1432L63.3615 37.6474L66.2186 33.2776C67.3951 34.286 68.5716 35.6306 69.2439 37.1432ZM63.8657 40.8407C63.8657 39.8323 63.3615 39.16 62.6892 38.4877L62.8573 38.1516L69.4119 37.6474C69.748 38.6558 69.9161 39.6642 69.9161 40.6726C69.9161 41.681 69.748 42.8575 69.4119 43.6978L62.3531 43.1936C63.1934 42.6894 63.8657 41.8491 63.8657 40.8407ZM69.2439 44.3701C67.8993 47.5633 64.706 49.9163 60.8405 49.9163C55.7985 49.9163 51.7648 45.8827 51.7648 40.8407C51.7648 35.7986 55.7985 31.765 60.8405 31.765C62.185 31.765 63.5296 32.1012 64.706 32.6054L61.3447 37.8154H60.6724C58.9918 37.8154 57.8153 39.16 57.8153 40.8407C57.8153 42.5213 59.1598 43.8659 60.6724 43.8659L69.2439 44.3701ZM66.7229 32.1012C68.4035 33.2776 69.9161 34.9583 70.5884 36.9751H69.9161C69.2439 35.1264 67.8993 33.6138 66.3867 32.6054L66.7229 32.1012ZM80.6724 36.807C80.1682 36.639 79.4959 36.4709 78.9917 36.4709C78.8237 36.4709 78.6556 36.4709 78.4876 36.4709L76.9749 36.639L71.7649 26.0507H90.7564L80.6724 36.807ZM76.3027 40.8407C76.3027 39.3281 77.4791 38.1516 78.9917 38.1516C80.5043 38.1516 81.6808 39.3281 81.6808 40.8407C81.6808 42.3533 80.5043 43.5297 78.9917 43.5297C77.4791 43.3617 76.3027 42.1852 76.3027 40.8407ZM72.7732 40.8407C72.7732 39.6642 72.6052 38.6558 72.2691 37.4793L75.4623 37.3112L75.7985 37.8154C75.1262 38.6558 74.622 39.6642 74.622 40.8407C74.622 42.3533 75.4623 43.6978 76.6388 44.5381L72.4371 44.202C72.6052 43.0255 72.7732 41.8491 72.7732 40.8407ZM72.101 36.9751C71.2606 34.4541 69.58 32.4373 67.5632 30.9247L70.2522 26.723L75.2942 36.639L72.101 36.9751ZM70.9245 43.8659H70.2522C70.5884 42.8575 70.7565 41.8491 70.7565 40.6726C70.7565 39.4961 70.5884 38.4877 70.2522 37.4793H70.9245C71.2607 38.4877 71.4287 39.4961 71.4287 40.6726C71.4287 41.8491 71.2607 42.8575 70.9245 43.8659ZM50.4203 40.8407C50.4203 35.1264 55.1262 30.4205 60.8405 30.4205C62.5212 30.4205 64.0338 30.7566 65.5464 31.597L65.2102 32.1012C63.8657 31.4289 62.5212 31.0928 60.8405 31.0928C55.4624 31.0928 51.0926 35.4625 51.0926 40.8407C51.0926 46.2188 55.4624 50.5886 60.8405 50.5886C64.8741 50.5886 68.4035 48.0675 69.9161 44.3701H70.5884C69.0758 48.4037 65.2103 51.0928 60.8405 51.0928C55.1262 51.2608 50.4203 46.5549 50.4203 40.8407Z" fill="white"/>
<path d="M75.2946 21.5134L68.2358 24.2025C68.0677 24.3705 67.7316 24.3705 67.3955 24.3705C66.8913 24.3705 66.5551 24.2025 66.219 24.0344C65.7148 23.6983 65.2106 23.026 65.2106 22.1856C65.2106 21.0092 66.219 20.0008 67.3955 20.0008H74.9585C75.2946 20.0008 75.6308 20.1688 75.6308 20.505C75.9669 21.0092 75.6307 21.3453 75.2946 21.5134Z" fill="white"/>
<path d="M39.6639 118.656H35.6303V120.168H39.3277V121.681H35.6303V123.193H39.8319V124.706H33.6134V116.975H39.6639V118.656Z" fill="white"/>
<path d="M43.6976 118.655C43.1934 118.655 42.8573 118.824 42.8573 119.16C42.8573 120.504 46.8909 119.664 46.8909 122.521C46.8909 124.034 45.5464 124.874 43.8657 124.874C42.5212 124.874 41.1766 124.37 40.3363 123.697L41.1766 122.017C42.017 122.689 43.1935 123.193 44.0338 123.193C44.7061 123.193 45.0422 123.025 45.0422 122.521C45.0422 121.176 41.0085 122.017 41.0085 119.328C41.0085 117.815 42.185 116.975 44.0338 116.975C45.2103 116.975 46.2186 117.311 47.059 117.815L46.3867 119.328C45.3783 118.992 44.3699 118.655 43.6976 118.655Z" fill="white"/>
<path d="M53.9499 117.143V118.824H51.597V124.874H49.5801V118.824H47.2272V117.143H53.9499Z" fill="white"/>
<path d="M62.0169 121.009C62.0169 123.362 60.3363 124.874 57.8153 124.874H54.622V117.143H57.9833C60.5044 117.143 62.0169 118.656 62.0169 121.009ZM60.0002 121.009C60.0002 119.664 59.1598 118.824 57.9833 118.824H56.8069V123.193H58.1514C59.1598 123.193 60.0002 122.353 60.0002 121.009Z" fill="white"/>
<path d="M64.37 124.034C64.37 124.538 64.0339 125.042 63.3617 125.042C62.6894 125.042 62.3533 124.706 62.3533 124.034C62.3533 123.53 62.6894 123.025 63.3617 123.025C64.0339 123.025 64.37 123.361 64.37 124.034Z" fill="white"/>
<path d="M102.185 117.143V124.874H100.168V118.824H98.8238V117.143H102.185Z" fill="white"/>
<path d="M106.051 123.362C107.228 123.362 107.9 122.689 107.732 121.513C107.396 122.017 106.723 122.353 105.883 122.353C104.37 122.353 103.362 121.345 103.362 119.832C103.362 118.151 104.538 117.143 106.219 117.143C108.236 117.143 109.58 118.656 109.58 121.009C109.58 123.362 108.236 125.042 106.051 125.042C105.211 125.042 104.202 124.874 103.53 124.37L104.37 122.857C104.875 123.193 105.379 123.362 106.051 123.362ZM107.564 119.664C107.564 119.16 107.227 118.656 106.387 118.656C105.715 118.656 105.379 118.992 105.379 119.664C105.379 120.336 105.715 120.672 106.387 120.672C107.227 120.672 107.564 120.336 107.564 119.664Z" fill="white"/>
<path d="M116.471 119.16C116.471 119.832 116.135 120.336 115.462 120.672C116.303 121.008 116.807 121.681 116.807 122.689C116.807 124.034 115.63 124.874 113.614 124.874C111.765 124.874 110.42 124.034 110.42 122.689C110.42 121.849 110.924 121.008 111.933 120.672C111.261 120.336 110.924 119.664 110.924 118.992C110.924 117.815 111.933 116.975 113.614 116.975C115.294 117.143 116.471 117.815 116.471 119.16ZM112.437 122.521C112.437 123.193 112.941 123.529 113.782 123.529C114.622 123.529 115.126 123.193 115.126 122.521C115.126 121.849 114.622 121.513 113.782 121.513C112.773 121.513 112.437 121.849 112.437 122.521ZM112.605 119.328C112.605 119.832 112.941 120.168 113.614 120.168C114.286 120.168 114.622 119.832 114.622 119.328C114.622 118.824 114.286 118.487 113.614 118.487C112.941 118.487 112.605 118.655 112.605 119.328Z" fill="white"/>
<path d="M120.505 120C122.353 120 123.362 121.009 123.362 122.353C123.362 124.034 122.185 125.042 120.336 125.042C119.328 125.042 118.152 124.706 117.311 124.034L118.152 122.521C118.656 123.194 119.328 123.53 120.168 123.53C120.841 123.53 121.345 123.194 121.345 122.521C121.345 122.017 121.009 121.681 120.168 121.681C119.832 121.681 118.488 121.681 118.152 121.681V117.311H123.194V118.992H120V120.168C120 120 120.336 120 120.505 120Z" fill="white"/>
<path d="M53.9496 73.7823C53.7816 76.8075 53.1093 78.6562 51.9328 78.8243C53.4454 80.0008 54.1177 82.3537 53.9496 86.2193C53.9496 86.3873 53.9496 86.7235 53.9496 86.8915C53.7816 89.7487 53.4454 91.5974 52.6051 92.4377C51.9328 93.2781 50.7564 93.11 49.0757 91.9335C47.5631 90.7571 46.2186 89.5806 44.874 88.2361C44.874 80.8411 44.874 73.6142 44.874 66.2193C46.3866 66.2193 48.0673 66.2193 49.5799 66.2193C51.2606 66.2193 52.437 66.7235 52.9412 67.7319C53.6135 68.7403 53.9496 70.4209 53.7816 72.7739C53.9496 73.2781 53.9496 73.4461 53.9496 73.7823ZM48.0673 76.3033C48.4034 76.4714 48.9076 76.4714 49.2437 76.6394C49.7479 76.8075 50.0841 76.6394 50.4202 76.3033C50.5883 75.9672 50.7564 74.9588 50.7564 73.6142C50.7564 73.11 50.7564 72.6058 50.7564 72.1016C50.7564 71.0932 50.7564 70.4209 50.4202 70.0848C50.2522 69.7487 49.7479 69.5806 49.2437 69.4125C48.9076 69.4125 48.5715 69.4125 48.0673 69.2445C48.0673 71.7655 48.0673 73.9503 48.0673 76.3033ZM47.7311 88.068C48.0673 88.4041 48.4034 88.5722 48.7396 88.9083C49.4118 89.2445 49.7479 89.4125 50.0841 88.9083C50.4202 88.5722 50.4202 87.5638 50.5883 86.2193C50.5883 85.547 50.5883 84.7067 50.5883 84.0344C50.5883 82.6898 50.5883 81.6814 50.4202 81.0092C50.2522 80.3369 49.916 80.0008 49.2437 79.6646C48.7395 79.4966 48.4034 79.3285 47.8992 79.1604C47.8992 82.1856 47.8992 85.0428 47.7311 88.068Z" fill="white"/>
<path d="M56.1349 96.807C56.471 86.723 56.8072 76.6389 57.3114 66.5549C58.4878 66.5549 59.4962 66.5549 60.6727 66.5549C60.3366 77.1431 59.8323 87.8994 59.4962 98.4877C58.3197 97.9835 57.3113 97.3112 56.1349 96.807Z" fill="white"/>
<path d="M71.5966 100.169C70.7562 101.681 69.4117 102.186 67.731 101.85C66.0503 101.345 64.7058 100.169 64.0335 98.152C63.1932 96.1352 62.8571 93.7823 63.0251 90.589C63.1932 85.715 63.3612 81.0092 63.5293 76.1352C63.6974 71.2613 64.7058 68.2361 66.3865 66.8915C67.0587 66.3873 67.731 66.2193 68.7394 66.2193C71.7646 66.2193 73.2772 69.4125 73.2772 75.7991C73.2772 77.4798 73.2772 79.1604 73.2772 80.673C72.1008 80.673 71.0924 80.505 69.9159 80.3369C69.9159 78.8243 69.9159 77.3117 70.084 75.7991C70.084 73.9503 70.084 72.6058 69.9159 71.9335C69.7478 71.0932 69.4117 70.7571 68.7394 70.7571C68.2352 70.7571 67.731 71.0932 67.563 71.9335C67.3949 72.7739 67.2268 73.9503 67.0587 75.631C66.8907 81.0092 66.7226 86.3873 66.5545 91.7655C66.5545 93.6142 66.5546 94.9587 66.7226 95.7991C66.8907 96.6394 67.2268 97.1436 67.8991 97.3117C68.4033 97.4798 68.9075 97.1436 69.0756 96.3033C69.2436 95.4629 69.4117 94.1184 69.5797 92.2697C69.5797 90.589 69.5797 88.9083 69.7478 87.2277C70.9243 87.3957 72.1008 87.5638 73.1092 87.5638C73.1092 89.2445 73.1092 90.9251 73.1092 92.6058C72.9411 95.9671 72.4369 98.4882 71.5966 100.169Z" fill="white"/>
<path d="M77.9834 102.857C77.9834 97.9835 77.9834 93.1095 77.9834 88.4036C76.807 81.1767 75.4624 73.7818 74.454 66.5549C75.4624 66.5549 76.6389 66.5549 77.6473 66.5549C78.3196 71.0927 78.9919 75.6305 79.8322 80.1683C80.5045 75.6305 81.1768 71.0927 81.849 66.5549C82.8574 66.5549 84.0339 66.5549 85.0423 66.5549C83.8658 73.7818 82.8574 81.0087 81.5129 88.4036C81.5129 93.2776 81.5129 98.1515 81.5129 102.857C80.5045 102.857 79.328 102.857 77.9834 102.857Z" fill="white"/>
<path d="M95.9665 98.488C95.2942 100.337 93.9496 101.513 92.269 101.849C90.5883 102.185 89.2438 101.681 88.4034 100.001C87.5631 98.3199 87.0589 95.7989 87.0589 92.4376C87.0589 87.2275 86.8908 82.0174 86.8908 76.8073C86.8908 71.4292 87.5631 68.0678 89.2438 66.7233C89.916 66.2191 90.5883 66.051 91.5967 66.051C94.6219 66.051 96.3026 69.0762 96.4706 74.9586C96.4706 76.4712 96.6387 77.9838 96.6387 79.4964C95.4622 79.6645 94.4538 79.8325 93.2774 79.8325C93.2774 78.3199 93.2774 76.8073 93.1093 75.4628C93.1093 73.614 92.9413 72.4376 92.7732 71.5972C92.6051 70.7569 92.1009 70.4208 91.5967 70.4208C91.0925 70.4208 90.5883 70.925 90.4202 71.7653C90.2521 72.6056 90.0841 73.9502 90.2522 75.6309C90.4202 81.1771 90.4202 86.5552 90.5883 92.1014C90.5883 93.9502 90.7564 95.2947 90.9244 96.135C91.0925 96.9754 91.5967 97.3115 92.1009 97.1435C92.6051 96.9754 93.1093 96.4712 93.2774 95.6309C93.4454 94.7905 93.6135 93.446 93.4454 91.5972C93.4454 89.9166 93.2774 88.2359 93.2774 86.7233C94.4538 86.5552 95.4622 86.3872 96.6387 86.051C96.6387 87.5636 96.8068 89.2443 96.8068 90.7569C96.9749 94.1182 96.6387 96.6393 95.9665 98.488Z" fill="white"/>
<path d="M100 98.9919C99.6641 88.2356 99.328 77.3112 98.8238 66.5549C100 66.5549 101.009 66.5549 102.185 66.5549C102.521 75.4625 102.857 84.5381 103.194 93.4456C104.538 92.7734 105.883 92.1011 107.395 91.4288C107.395 92.6053 107.563 93.9499 107.563 95.1263C105.042 96.6389 102.521 97.9835 100 98.9919Z" fill="white"/>
<path d="M109.243 93.9499C108.907 84.8742 108.571 75.6305 108.403 66.5549C110.924 66.5549 113.277 66.5549 115.798 66.5549C115.798 67.5633 115.798 68.5717 115.798 69.412C114.454 69.5801 113.109 69.7482 111.933 69.9162C111.933 72.4373 112.101 74.7902 112.101 77.3112C113.277 76.9751 114.454 76.4709 115.63 76.1347C115.63 77.1431 115.63 77.9835 115.63 78.9919C114.454 79.4961 113.277 80.1683 112.101 80.6725C112.101 83.3616 112.269 86.0507 112.269 88.7398C113.445 87.8994 114.79 86.891 115.966 85.8826C115.966 86.891 115.966 87.7314 115.966 88.7398C113.781 90.4204 111.596 92.2692 109.243 93.9499Z" fill="white"/>
</svg>
