<svg width="160" height="120" viewBox="0 0 160 120" fill="none" xmlns="http://www.w3.org/2000/svg">
<path d="M34.7171 60.88H25.996C23.3125 60.88 21.1322 63.0603 21.1322 65.7437C21.1322 68.4271 23.3125 70.6075 25.996 70.6075H34.7171C37.4006 70.6075 39.5809 68.4271 39.5809 65.7437C39.5809 62.8925 37.4006 60.88 34.7171 60.88ZM25.996 68.0917C24.6542 68.0917 23.4802 66.9177 23.4802 65.576C23.4802 64.2343 24.6542 63.0603 25.996 63.0603C27.3377 63.0603 28.5117 64.2343 28.5117 65.576C28.5117 66.9177 27.3377 68.0917 25.996 68.0917ZM34.7171 68.0917C33.3754 68.0917 32.2014 66.9177 32.2014 65.576C32.2014 64.2343 33.3754 63.0603 34.7171 63.0603C36.0588 63.0603 37.2328 64.2343 37.2328 65.576C37.2328 66.9177 36.2266 68.0917 34.7171 68.0917Z" fill="white"/>
<path d="M0 85.7016V94.4228C0 97.1062 2.18031 99.2865 4.86375 99.2865C7.54718 99.2865 9.72747 97.1062 9.72747 94.4228V85.7016C9.72747 83.0182 7.54718 80.8379 4.86375 80.8379C2.18031 81.0056 0 83.0182 0 85.7016ZM7.21174 94.4228C7.21174 95.7645 6.03774 96.9385 4.69602 96.9385C3.3543 96.9385 2.1803 95.7645 2.1803 94.4228C2.1803 93.0811 3.3543 91.9071 4.69602 91.9071C6.20546 92.0748 7.21174 93.0811 7.21174 94.4228ZM7.21174 85.7016C7.21174 87.0434 6.03774 88.2174 4.69602 88.2174C3.3543 88.2174 2.1803 87.0434 2.1803 85.7016C2.1803 84.3599 3.3543 83.1859 4.69602 83.1859C6.20546 83.3536 7.21174 84.3599 7.21174 85.7016Z" fill="white"/>
<path d="M12.9139 65.7436L5.86989 70.9427C3.6896 72.4522 3.35418 75.4711 4.86362 77.6513C6.37305 79.8316 9.39192 80.1671 11.5722 78.6576L18.6162 73.4585C20.7965 71.949 21.1319 68.9302 19.6225 66.7499C17.9454 64.5696 14.9265 64.2341 12.9139 65.7436ZM10.2305 76.8128C9.05648 77.6513 7.54704 77.3159 6.70847 76.3096C5.86989 75.1356 6.20533 73.6262 7.21162 72.7876C8.38562 71.949 9.89506 72.2845 10.7336 73.2907C11.4045 74.4647 11.2368 75.9742 10.2305 76.8128ZM17.1068 71.6136C15.9328 72.4522 14.4234 72.1168 13.5848 71.1105C12.7462 69.9365 13.0816 68.427 14.0879 67.5884C15.2619 66.7499 16.7714 67.0853 17.6099 68.0916C18.4485 69.2656 18.2808 70.775 17.1068 71.6136Z" fill="white"/>
<path d="M20.126 112.704C21.4677 110.356 20.6291 107.505 18.4488 106.163L10.9016 101.802C8.55363 100.461 5.70249 101.299 4.36077 103.479C3.01905 105.827 3.85763 108.679 6.03792 110.02L13.5851 114.381C15.9331 115.723 18.7842 114.884 20.126 112.704ZM10.5662 107.001C9.89536 108.175 8.38592 108.511 7.21192 107.84C6.03792 107.169 5.70249 105.66 6.37334 104.486C7.0442 103.312 8.55364 102.976 9.72764 103.647C10.9016 104.318 11.2371 105.827 10.5662 107.001ZM18.1134 111.53C17.4425 112.704 15.9331 113.039 14.7591 112.368C13.5851 111.697 13.2497 110.188 13.9205 109.014C14.5914 107.84 16.1008 107.505 17.2748 108.175C18.4488 108.679 18.7842 110.188 18.1134 111.53Z" fill="white"/>
<path d="M155.136 81.0058C152.453 81.0058 150.273 83.186 150.273 85.8695V94.5907C150.273 97.2741 152.453 99.4544 155.136 99.4544C157.82 99.4544 160 97.2741 160 94.5907V85.8695C159.832 83.0183 157.82 81.0058 155.136 81.0058ZM155.136 92.0749C156.478 92.0749 157.652 93.2489 157.652 94.5907C157.652 95.9324 156.478 97.1064 155.136 97.1064C153.795 97.1064 152.621 95.9324 152.621 94.5907C152.621 93.2489 153.795 92.0749 155.136 92.0749ZM155.136 83.3538C156.478 83.3538 157.652 84.5278 157.652 85.8695C157.652 87.2112 156.478 88.3852 155.136 88.3852C153.795 88.3852 152.621 87.2112 152.621 85.8695C152.621 84.36 153.795 83.3538 155.136 83.3538Z" fill="white"/>
<path d="M140.378 66.7499C138.868 68.9302 139.204 71.949 141.384 73.4585L148.428 78.6576C150.608 80.1671 153.627 79.8316 155.137 77.6513C156.646 75.4711 156.311 72.4522 154.13 70.9427L147.086 65.7436C144.906 64.2341 141.887 64.5696 140.378 66.7499ZM149.267 73.2907C150.105 72.1167 151.615 71.949 152.789 72.7876C153.963 73.6262 154.13 75.1356 153.292 76.3096C152.453 77.4836 150.944 77.6513 149.77 76.8128C148.596 75.9742 148.428 74.4647 149.267 73.2907ZM142.223 68.0916C143.061 66.9176 144.571 66.7499 145.745 67.5884C146.919 68.427 147.086 69.9365 146.248 71.1105C145.409 72.2845 143.9 72.4522 142.726 71.6136C141.552 70.775 141.384 69.2656 142.223 68.0916Z" fill="white"/>
<path d="M146.247 114.381L153.794 110.02C156.142 108.679 156.813 105.66 155.471 103.479C154.13 101.131 151.111 100.461 148.93 101.802L141.383 106.163C139.035 107.505 138.364 110.523 139.706 112.704C141.048 114.884 144.067 115.723 146.247 114.381ZM150.272 103.647C151.446 102.976 152.956 103.312 153.627 104.486C154.297 105.66 153.962 107.169 152.788 107.84C151.614 108.511 150.105 108.175 149.434 107.001C148.595 105.827 149.098 104.318 150.272 103.647ZM142.725 108.008C143.899 107.337 145.409 107.672 146.079 108.846C146.75 110.02 146.415 111.53 145.241 112.201C144.067 112.871 142.557 112.536 141.886 111.362C141.048 110.188 141.551 108.679 142.725 108.008Z" fill="white"/>
<path d="M54.6749 60.88H45.786C43.1025 60.88 40.9223 63.0603 40.9223 65.7437C40.9223 68.4271 43.1025 70.6075 45.786 70.6075H54.5072C57.1906 70.6075 59.3709 68.4271 59.3709 65.7437C59.3709 62.8925 57.1906 60.88 54.6749 60.88ZM45.786 68.0917C44.4443 68.0917 43.2703 66.9177 43.2703 65.576C43.2703 64.2343 44.4443 63.0603 45.786 63.0603C47.1277 63.0603 48.3017 64.2343 48.3017 65.576C48.3017 66.9177 47.2954 68.0917 45.786 68.0917ZM54.6749 68.0917C53.3332 68.0917 52.1592 66.9177 52.1592 65.576C52.1592 64.2343 53.3332 63.0603 54.6749 63.0603C56.0166 63.0603 57.1906 64.2343 57.1906 65.576C57.0229 66.9177 56.0166 68.0917 54.6749 68.0917Z" fill="white"/>
<path d="M74.4651 60.88H65.7439C63.0605 60.88 60.8802 63.0603 60.8802 65.7437C60.8802 68.4271 63.0605 70.6075 65.7439 70.6075H74.4651C77.1485 70.6075 79.3288 68.4271 79.3288 65.7437C79.1611 62.8925 76.9808 60.88 74.4651 60.88ZM65.7439 68.0917C64.4022 68.0917 63.2282 66.9177 63.2282 65.576C63.2282 64.2343 64.4022 63.0603 65.7439 63.0603C67.0856 63.0603 68.2596 64.2343 68.2596 65.576C68.0919 66.9177 67.0856 68.0917 65.7439 68.0917ZM74.4651 68.0917C73.1234 68.0917 71.9494 66.9177 71.9494 65.576C71.9494 64.2343 73.1234 63.0603 74.4651 63.0603C75.8068 63.0603 76.9808 64.2343 76.9808 65.576C76.8131 66.9177 75.8068 68.0917 74.4651 68.0917Z" fill="white"/>
<path d="M94.2559 60.88H85.5347C82.8513 60.88 80.671 63.0603 80.671 65.7437C80.671 68.4271 82.8513 70.6075 85.5347 70.6075H94.2559C96.9393 70.6075 99.1197 68.4271 99.1197 65.7437C98.9519 62.8925 96.9393 60.88 94.2559 60.88ZM85.5347 68.0917C84.193 68.0917 83.019 66.9177 83.019 65.576C83.019 64.2343 84.193 63.0603 85.5347 63.0603C86.8765 63.0603 88.0505 64.2343 88.0505 65.576C87.8827 66.9177 86.8765 68.0917 85.5347 68.0917ZM94.2559 68.0917C92.9142 68.0917 91.7402 66.9177 91.7402 65.576C91.7402 64.2343 92.9142 63.0603 94.2559 63.0603C95.5976 63.0603 96.7716 64.2343 96.7716 65.576C96.7716 66.9177 95.5976 68.0917 94.2559 68.0917Z" fill="white"/>
<path d="M114.046 60.88H105.325C102.641 60.88 100.461 63.0603 100.461 65.7437C100.461 68.4271 102.641 70.6075 105.325 70.6075H114.046C116.729 70.6075 118.91 68.4271 118.91 65.7437C118.91 62.8925 116.729 60.88 114.046 60.88ZM105.325 68.0917C103.983 68.0917 102.809 66.9177 102.809 65.576C102.809 64.2343 103.983 63.0603 105.325 63.0603C106.666 63.0603 107.84 64.2343 107.84 65.576C107.84 66.9177 106.666 68.0917 105.325 68.0917ZM114.046 68.0917C112.704 68.0917 111.53 66.9177 111.53 65.576C111.53 64.2343 112.704 63.0603 114.046 63.0603C115.388 63.0603 116.562 64.2343 116.562 65.576C116.562 66.9177 115.388 68.0917 114.046 68.0917Z" fill="white"/>
<path d="M133.837 60.88H125.116C122.432 60.88 120.252 63.0603 120.252 65.7437C120.252 68.4271 122.432 70.6075 125.116 70.6075H133.837C136.52 70.6075 138.701 68.4271 138.701 65.7437C138.701 62.8925 136.52 60.88 133.837 60.88ZM125.116 68.0917C123.774 68.0917 122.6 66.9177 122.6 65.576C122.6 64.2343 123.774 63.0603 125.116 63.0603C126.457 63.0603 127.631 64.2343 127.631 65.576C127.631 66.9177 126.457 68.0917 125.116 68.0917ZM133.837 68.0917C132.495 68.0917 131.321 66.9177 131.321 65.576C131.321 64.2343 132.495 63.0603 133.837 63.0603C135.179 63.0603 136.353 64.2343 136.353 65.576C136.353 66.9177 135.179 68.0917 133.837 68.0917Z" fill="white"/>
<path d="M34.7171 109.853H25.996C23.3125 109.853 21.1322 112.033 21.1322 114.717C21.1322 117.4 23.3125 119.58 25.996 119.58H34.7171C37.4006 119.58 39.5809 117.4 39.5809 114.717C39.5809 112.033 37.4006 109.853 34.7171 109.853ZM25.996 117.065C24.6542 117.065 23.4802 115.891 23.4802 114.549C23.4802 113.207 24.6542 112.033 25.996 112.033C27.3377 112.033 28.5117 113.207 28.5117 114.549C28.5117 115.891 27.3377 117.065 25.996 117.065ZM34.7171 117.065C33.3754 117.065 32.2014 115.891 32.2014 114.549C32.2014 113.207 33.3754 112.033 34.7171 112.033C36.0588 112.033 37.2328 113.207 37.2328 114.549C37.2328 115.891 36.2266 117.065 34.7171 117.065Z" fill="white"/>
<path d="M54.6749 109.853H45.786C43.1025 109.853 40.9223 112.033 40.9223 114.717C40.9223 117.4 43.1025 119.58 45.786 119.58H54.5072C57.1906 119.58 59.3709 117.4 59.3709 114.717C59.3709 112.033 57.1906 109.853 54.6749 109.853ZM45.786 117.065C44.4443 117.065 43.2703 115.891 43.2703 114.549C43.2703 113.207 44.4443 112.033 45.786 112.033C47.1277 112.033 48.3017 113.207 48.3017 114.549C48.3017 115.891 47.2954 117.065 45.786 117.065ZM54.6749 117.065C53.3332 117.065 52.1592 115.891 52.1592 114.549C52.1592 113.207 53.3332 112.033 54.6749 112.033C56.0166 112.033 57.1906 113.207 57.1906 114.549C57.1906 115.891 56.0166 117.065 54.6749 117.065Z" fill="white"/>
<path d="M74.4651 109.853H65.7439C63.0605 109.853 60.8802 112.033 60.8802 114.717C60.8802 117.4 63.0605 119.58 65.7439 119.58H74.4651C77.1485 119.58 79.3288 117.4 79.3288 114.717C79.1611 112.033 76.9808 109.853 74.4651 109.853ZM65.7439 117.065C64.4022 117.065 63.2282 115.891 63.2282 114.549C63.2282 113.207 64.4022 112.033 65.7439 112.033C67.0856 112.033 68.2596 113.207 68.2596 114.549C68.2596 115.891 67.0856 117.065 65.7439 117.065ZM74.4651 117.065C73.1234 117.065 71.9494 115.891 71.9494 114.549C71.9494 113.207 73.1234 112.033 74.4651 112.033C75.8068 112.033 76.9808 113.207 76.9808 114.549C76.9808 115.891 75.8068 117.065 74.4651 117.065Z" fill="white"/>
<path d="M94.2559 109.853H85.5347C82.8513 109.853 80.671 112.033 80.671 114.717C80.671 117.4 82.8513 119.58 85.5347 119.58H94.2559C96.9393 119.58 99.1197 117.4 99.1197 114.717C98.9519 112.033 96.9393 109.853 94.2559 109.853ZM85.5347 117.065C84.193 117.065 83.019 115.891 83.019 114.549C83.019 113.207 84.193 112.033 85.5347 112.033C86.8765 112.033 88.0505 113.207 88.0505 114.549C88.0505 115.891 86.8765 117.065 85.5347 117.065ZM94.2559 117.065C92.9142 117.065 91.7402 115.891 91.7402 114.549C91.7402 113.207 92.9142 112.033 94.2559 112.033C95.5976 112.033 96.7716 113.207 96.7716 114.549C96.7716 115.891 95.5976 117.065 94.2559 117.065Z" fill="white"/>
<path d="M114.046 109.853H105.325C102.641 109.853 100.461 112.033 100.461 114.717C100.461 117.4 102.641 119.58 105.325 119.58H114.046C116.729 119.58 118.91 117.4 118.91 114.717C118.91 112.033 116.729 109.853 114.046 109.853ZM105.325 117.065C103.983 117.065 102.809 115.891 102.809 114.549C102.809 113.207 103.983 112.033 105.325 112.033C106.666 112.033 107.84 113.207 107.84 114.549C107.84 115.891 106.666 117.065 105.325 117.065ZM114.046 117.065C112.704 117.065 111.53 115.891 111.53 114.549C111.53 113.207 112.704 112.033 114.046 112.033C115.388 112.033 116.562 113.207 116.562 114.549C116.562 115.891 115.388 117.065 114.046 117.065Z" fill="white"/>
<path d="M133.837 109.853H125.116C122.432 109.853 120.252 112.033 120.252 114.717C120.252 117.4 122.432 119.58 125.116 119.58H133.837C136.52 119.58 138.701 117.4 138.701 114.717C138.701 112.033 136.52 109.853 133.837 109.853ZM125.116 117.065C123.774 117.065 122.6 115.891 122.6 114.549C122.6 113.207 123.774 112.033 125.116 112.033C126.457 112.033 127.631 113.207 127.631 114.549C127.631 115.891 126.457 117.065 125.116 117.065ZM133.837 117.065C132.495 117.065 131.321 115.891 131.321 114.549C131.321 113.207 132.495 112.033 133.837 112.033C135.179 112.033 136.353 113.207 136.353 114.549C136.353 115.891 135.179 117.065 133.837 117.065Z" fill="white"/>
<path d="M98.2807 22.1383L90.9012 14.7589C88.7209 12.5786 88.7209 9.05661 90.9012 6.87632L93.5847 4.19287L108.847 19.4549L106.163 22.1383C103.983 24.3186 100.461 24.3186 98.2807 22.1383Z" fill="white"/>
<path d="M106.331 2.01255L104.319 0L93.5847 4.19287L98.9519 9.39204L106.331 2.01255Z" fill="white"/>
<path d="M106.834 5.87002L108.344 7.37944L105.157 15.7652L101.132 11.5723L106.834 5.87002Z" fill="white"/>
<path d="M70.7749 16.9392L67.5884 19.958L95.0936 52.4947C97.2739 55.1781 101.299 55.3459 103.815 52.8302C106.331 50.3144 106.163 46.457 103.479 44.109L70.7749 16.9392ZM101.634 50.9853C100.46 52.1593 98.6156 52.1593 97.4416 50.9853C96.2676 49.8113 96.2676 47.9664 97.4416 46.7924C98.6156 45.6184 100.46 45.6184 101.634 46.7924C102.809 47.9664 102.809 49.8113 101.634 50.9853Z" fill="white"/>
<path d="M59.203 0.335757L58.5321 1.00666L63.7313 6.20578C64.7376 7.21207 64.7376 8.88924 63.7313 9.89552L60.5447 13.0821C59.5384 14.0884 57.8613 14.0884 56.855 13.0821L51.6558 7.88293L50.985 8.55383L53.5007 18.2813C53.6684 19.1198 54.507 19.7907 55.3455 20.1261L63.5636 22.3064C64.4022 22.4741 65.4084 22.3064 66.0793 21.6356L72.117 15.5978C72.7879 14.927 72.9556 14.0884 72.7879 13.0821L70.6076 4.86408C70.4399 4.02551 69.6013 3.35464 68.7627 3.01921L59.203 0.335757Z" fill="white"/>
<path d="M89.2241 28.1761L96.1004 19.9581L93.0815 16.9393L84.5281 24.151L89.2241 28.1761Z" fill="white"/>
<path d="M73.9624 32.8722L60.3775 44.2768C57.694 46.4571 57.5263 50.4823 60.042 52.998C62.5578 55.5137 66.4152 55.346 68.7632 52.6625L79.6647 39.7485L73.9624 32.8722ZM66.2475 50.9854C65.0735 52.1594 63.2286 52.1594 62.0546 50.9854C60.8806 49.8114 60.8806 47.9665 62.0546 46.7925C63.2286 45.6185 65.0735 45.6185 66.2475 46.7925C67.4215 47.9665 67.4215 49.8114 66.2475 50.9854Z" fill="white"/>
<path d="M29.6853 79.6644C36.7294 79.6644 38.0711 82.5155 38.0711 85.8698C38.0711 88.2178 36.2262 89.895 33.7105 90.2304C35.7231 90.5658 37.7357 92.4107 37.7357 94.591C37.7357 95.9327 37.9034 96.6036 38.4065 96.6036C38.9097 96.6036 39.0774 96.2682 39.0774 95.5973V94.591H41.09V96.2682C41.09 98.7839 40.0837 101.132 36.7294 101.132C32.7042 101.132 30.8594 99.1193 30.8594 95.4296C30.8594 92.7462 30.5239 92.0753 27.8405 92.0753V96.7713H29.6853V100.796H19.9579V96.7713H21.6351V83.5218H19.9579V79.4967H29.6853V79.6644ZM27.8405 88.721H29.1822C30.8594 88.721 32.0334 87.8824 32.0334 86.2053C32.0334 84.3604 31.0271 83.5218 29.3499 83.5218H27.8405V88.721Z" fill="white"/>
<path d="M60.8802 79.6647V86.3733H55.681V83.6898H50.8173V87.8827H56.5196V91.9078H50.8173V96.7715H55.681V93.9204H60.8802V100.797H42.5993V96.7715H44.4442V83.6898H42.5993V79.6647H60.8802Z" fill="white"/>
<path d="M73.1233 79.6647C80.1673 79.6647 81.509 82.6835 81.509 86.2055C81.509 90.2307 77.8193 92.2433 73.6264 92.2433H71.2784V96.9393H73.1233V100.964H63.3958V96.9393H65.0729V83.6898H63.3958V79.6647H73.1233ZM71.1107 88.7213H72.4524C74.1295 88.7213 75.4713 87.8827 75.4713 86.2055C75.4713 84.3607 74.465 83.5221 72.6201 83.5221H71.1107V88.7213Z" fill="white"/>
<path d="M92.5787 100.797V96.7715H95.4298L94.7589 94.759H88.5535L87.8827 96.7715H90.2307V100.797H80.6709V96.7715H82.6835L86.7086 83.5221H85.5346V79.6647H97.107L102.474 96.7715H104.654V100.797H92.5787ZM93.7527 91.0693L91.7401 84.5284L89.7275 91.0693H93.7527Z" fill="white"/>
<path d="M116.394 79.6647V83.6898H114.549V96.7715H116.394V100.797H106.331V96.7715H108.176V83.6898H106.331V79.6647H116.394Z" fill="white"/>
<path d="M128.469 79.6645C135.513 79.6645 136.855 82.5156 136.855 85.8699C136.855 88.2179 135.01 89.8951 132.494 90.2305C134.507 90.5659 136.519 92.4108 136.519 94.5911C136.519 95.9328 136.687 96.6037 137.19 96.6037C137.693 96.6037 137.861 96.2683 137.861 95.5974V94.5911H139.874V96.2683C139.874 98.784 138.867 101.132 135.513 101.132C131.488 101.132 129.643 99.1194 129.643 95.4297C129.643 92.7463 129.308 92.0754 126.624 92.0754V96.7714H128.469V100.797H118.742V96.7714H120.419V83.5219H118.742V79.4968H128.469V79.6645ZM126.624 88.7211H127.966C129.643 88.7211 130.817 87.8825 130.817 86.2054C130.817 84.3605 129.811 83.5219 128.134 83.5219H126.624V88.7211Z" fill="white"/>
<path d="M23.4802 38.7423V25.3251H28.0085V27.0023H25.4928V30.8597H27.8408V32.5368H25.4928V36.7297H28.0085V38.4069H23.4802V38.7423Z" fill="white"/>
<path d="M29.5179 35.0524V33.8784H31.3628V35.2201C31.3628 35.891 31.3628 36.5618 31.5305 36.7295C31.6982 37.065 31.8659 37.2327 32.2014 37.2327C32.5368 37.2327 32.7045 37.065 32.8722 36.8973C33.0399 36.7296 33.0399 36.2264 33.0399 35.7233C33.0399 35.2201 32.8722 34.717 32.7045 34.2138C32.5368 33.8784 32.2014 33.3753 31.6982 32.8721L30.6919 31.8658C30.1888 31.3627 29.8533 30.8596 29.6856 30.3564C29.3502 29.8533 29.3502 29.1824 29.3502 28.5115C29.3502 27.3375 29.5179 26.6667 30.0211 25.9958C30.5242 25.4927 31.1951 25.1572 32.2014 25.1572C33.2076 25.1572 33.8785 25.4927 34.3816 26.1635C34.7171 26.8344 34.8848 27.6729 34.8848 28.8469V29.6855H33.0399V28.6793C33.0399 28.0084 33.0399 27.5052 32.8722 27.3375C32.7045 27.0021 32.5368 26.8344 32.2014 26.8344C31.8659 26.8344 31.6982 27.0021 31.5305 27.1698C31.3628 27.3375 31.3628 27.6729 31.3628 28.1761C31.3628 28.6792 31.3628 29.0147 31.5305 29.1824C31.6982 29.5178 31.8659 29.6855 32.3691 30.1887L33.5431 31.3627C34.0462 32.0335 34.5494 32.5367 34.7171 33.2075C35.0525 33.8784 35.2202 34.5493 35.2202 35.2201C35.2202 36.3941 35.0525 37.4004 34.5494 38.0712C34.2139 38.7421 33.3754 38.9098 32.3691 38.9098C31.3628 38.9098 30.5242 38.5744 30.1888 37.9036C29.6856 37.2327 29.5179 36.2264 29.5179 35.0524Z" fill="white"/>
<path d="M37.2325 38.7425V27.1701H35.723V25.493H40.7545V27.1701H39.2451V38.7425H37.2325Z" fill="white"/>
<path d="M41.9288 38.7423V25.3251H44.9477C45.954 25.3251 46.6248 25.6605 47.128 26.1637C47.6311 26.6668 47.7988 27.6731 47.7988 28.6794V34.7171C47.7988 36.0588 47.6311 37.0651 47.128 37.736C46.6248 38.4069 45.954 38.7423 44.9477 38.7423H41.9288ZM43.9414 37.2328H44.6123C44.9477 37.2328 45.2831 37.0651 45.4508 36.8974C45.6186 36.7297 45.7863 36.2265 45.7863 35.5557V29.0148C45.7863 28.3439 45.7863 27.8408 45.4508 27.5054C45.2831 27.17 44.9477 27.0023 44.6123 27.0023H43.9414V37.2328Z" fill="white"/>
<path d="M49.3081 38.7421V36.8973H50.9853V38.7421H49.3081Z" fill="white"/>
<path d="M112.537 38.7423V27.8408C112.369 28.0086 112.201 28.1763 111.866 28.344C111.531 28.5117 111.195 28.5117 110.86 28.5117V27.0023C111.363 27.0023 111.698 26.8345 112.034 26.4991C112.369 26.1637 112.705 25.8283 112.872 25.3251H114.382V38.7423H112.537Z" fill="white"/>
<path d="M121.258 37.9036C120.755 38.5744 120.084 38.9098 119.078 38.9098C118.072 38.9098 117.401 38.5744 117.066 38.0713C116.562 37.5681 116.395 36.7295 116.395 35.5555V34.8847H118.24V35.2201C118.24 36.0587 118.24 36.5619 118.407 36.8973C118.575 37.2327 118.743 37.2327 119.078 37.2327C119.414 37.2327 119.581 37.2327 119.581 37.065C119.581 36.8973 119.749 36.8973 119.749 36.7296C119.749 36.5618 119.749 36.2264 119.749 35.5555V33.3753C119.414 33.543 119.078 33.7107 118.575 33.7107C117.736 33.7107 117.066 33.3753 116.73 32.7044C116.395 32.0336 116.227 31.0272 116.227 29.6855V29.1824C116.227 27.5052 116.562 26.3312 117.066 25.8281C117.569 25.3249 118.24 25.1572 119.078 25.1572C119.917 25.1572 120.588 25.3249 120.923 25.6604C121.258 25.9958 121.594 26.499 121.762 27.0021C121.929 27.673 121.929 28.3438 121.929 29.3501V34.717C121.929 36.2264 121.762 37.2327 121.258 37.9036ZM119.078 32.0336C119.581 32.0336 119.917 31.8658 119.917 31.3627V28.8469C119.917 28.1761 119.917 27.673 119.749 27.5052C119.581 27.1698 119.414 27.0021 119.078 27.0021C118.743 27.0021 118.575 27.1698 118.407 27.5052C118.24 27.8407 118.24 28.3438 118.24 29.0147V30.1887C118.24 30.8595 118.24 31.3627 118.407 31.6981C118.575 31.8658 118.743 32.0336 119.078 32.0336Z" fill="white"/>
<path d="M128.638 38.0714C128.135 38.5746 127.464 38.91 126.457 38.91C125.451 38.91 124.78 38.5746 124.277 38.0714C123.774 37.5683 123.606 36.7297 123.606 35.5557C123.606 35.5557 123.606 35.2203 123.606 34.5494C123.606 33.8786 123.774 33.3754 123.942 32.7046C124.109 32.2014 124.445 31.6983 124.78 31.5305C124.109 31.0274 123.774 30.0211 123.774 28.6794C123.774 27.5054 123.942 26.6668 124.445 26.1637C124.948 25.6605 125.619 25.3251 126.625 25.3251C127.631 25.3251 128.302 25.6605 128.805 26.1637C129.309 26.6668 129.476 27.5054 129.476 28.6794C129.476 30.1889 129.141 31.0274 128.47 31.5305C128.805 31.6983 129.141 32.2014 129.309 32.7046C129.476 33.2077 129.644 33.8786 129.644 34.5494V35.388C129.476 36.562 129.141 37.4006 128.638 38.0714ZM125.787 36.7297C125.954 37.0651 126.122 37.0652 126.457 37.0652C126.793 37.0652 127.128 36.8974 127.128 36.7297C127.296 36.3943 127.296 36.0589 127.296 35.388V34.214C127.296 32.8723 126.961 32.2014 126.457 32.2014C126.122 32.2014 125.954 32.3691 125.787 32.7046C125.619 33.04 125.619 33.5431 125.619 34.214V35.388C125.619 36.0589 125.787 36.562 125.787 36.7297ZM126.122 30.692C126.29 30.8597 126.457 30.8597 126.625 30.8597C126.793 30.8597 126.961 30.8597 127.128 30.692C127.296 30.5243 127.296 30.3565 127.464 30.0211C127.464 29.6857 127.631 29.1826 127.631 28.6794C127.631 28.1763 127.631 27.6731 127.464 27.3377C127.464 27.0022 127.296 26.8345 127.128 26.8345C126.961 26.6668 126.793 26.6668 126.625 26.6668C126.457 26.6668 126.29 26.6668 126.122 26.8345C125.954 27.0023 125.787 27.6731 125.787 28.6794C125.787 29.8534 125.787 30.5243 126.122 30.692Z" fill="white"/>
<path d="M133.669 38.9095C131.824 38.9095 130.985 38.071 130.985 36.2261V34.549H132.83V36.0584C132.83 36.7293 132.998 37.0647 133.166 37.2324C133.333 37.2324 133.333 37.2324 133.669 37.2324C134.172 37.2324 134.34 36.7292 134.34 35.8907V32.5364C134.34 32.0332 134.34 31.6978 134.172 31.5301C134.004 31.3624 133.837 31.1947 133.501 31.1947C132.998 31.1947 132.663 31.6978 132.663 32.5364H130.818V25.6601H135.681V27.5049H132.998V30.1884C133.166 30.0207 133.333 29.8529 133.501 29.6852C133.669 29.5175 134.004 29.5175 134.34 29.5175C135.178 29.5175 135.681 29.8529 136.017 30.5238C136.352 31.1946 136.52 32.3687 136.52 33.7104C136.52 35.2198 136.52 36.2261 136.352 36.897C136.185 37.4001 136.017 37.9032 135.849 38.2387C135.514 38.5741 134.675 38.9095 133.669 38.9095Z" fill="white"/>
</svg>
